<mxfile host="Electron" agent="Mozilla/5.0 (X11; Linux x86_64) AppleWebKit/537.36 (KHTML, like Gecko) draw.io/26.1.1 Chrome/132.0.6834.210 Electron/34.3.3 Safari/537.36" version="26.1.1" pages="2">
  <diagram id="2diQ4-hwBHMUEnQ9NyKu" name="Page-2">
    <mxGraphModel dx="1434" dy="838" grid="1" gridSize="10" guides="1" tooltips="1" connect="1" arrows="1" fold="1" page="1" pageScale="1" pageWidth="827" pageHeight="1169" math="0" shadow="0">
      <root>
        <mxCell id="QUErZSxBeOXtRjEbxhGZ-0" />
        <mxCell id="QUErZSxBeOXtRjEbxhGZ-1" parent="QUErZSxBeOXtRjEbxhGZ-0" />
        <mxCell id="7aW_w24DgV95CwVqCJy3-1" value="&lt;span style=&quot;font-weight: 700&quot;&gt;Организатор&lt;/span&gt;" style="rounded=0;whiteSpace=wrap;html=1;" parent="QUErZSxBeOXtRjEbxhGZ-1" vertex="1">
          <mxGeometry x="1560" y="530" width="120" height="60" as="geometry" />
        </mxCell>
        <mxCell id="7aW_w24DgV95CwVqCJy3-2" value="&lt;b&gt;Шахматный &lt;br&gt;турнир&lt;/b&gt;" style="rounded=0;whiteSpace=wrap;html=1;" parent="QUErZSxBeOXtRjEbxhGZ-1" vertex="1">
          <mxGeometry x="1100" y="530" width="120" height="60" as="geometry" />
        </mxCell>
        <mxCell id="7aW_w24DgV95CwVqCJy3-9" style="edgeStyle=orthogonalEdgeStyle;rounded=0;orthogonalLoop=1;jettySize=auto;html=1;exitX=0;exitY=0.5;exitDx=0;exitDy=0;endArrow=none;endFill=0;" parent="QUErZSxBeOXtRjEbxhGZ-1" source="7aW_w24DgV95CwVqCJy3-10" edge="1">
          <mxGeometry relative="1" as="geometry">
            <mxPoint x="1160" y="495.2758620689656" as="targetPoint" />
          </mxGeometry>
        </mxCell>
        <mxCell id="7aW_w24DgV95CwVqCJy3-10" value="Длительность" style="ellipse;whiteSpace=wrap;html=1;" parent="QUErZSxBeOXtRjEbxhGZ-1" vertex="1">
          <mxGeometry x="1180" y="475" width="120" height="40" as="geometry" />
        </mxCell>
        <mxCell id="7aW_w24DgV95CwVqCJy3-11" style="edgeStyle=orthogonalEdgeStyle;rounded=0;orthogonalLoop=1;jettySize=auto;html=1;exitX=0;exitY=0.5;exitDx=0;exitDy=0;endArrow=none;endFill=0;" parent="QUErZSxBeOXtRjEbxhGZ-1" source="7aW_w24DgV95CwVqCJy3-12" edge="1">
          <mxGeometry relative="1" as="geometry">
            <mxPoint x="1160" y="444.9310344827586" as="targetPoint" />
          </mxGeometry>
        </mxCell>
        <mxCell id="7aW_w24DgV95CwVqCJy3-12" value="Время начала" style="ellipse;whiteSpace=wrap;html=1;" parent="QUErZSxBeOXtRjEbxhGZ-1" vertex="1">
          <mxGeometry x="1180" y="425" width="120" height="40" as="geometry" />
        </mxCell>
        <mxCell id="7aW_w24DgV95CwVqCJy3-13" style="edgeStyle=orthogonalEdgeStyle;rounded=0;orthogonalLoop=1;jettySize=auto;html=1;exitX=0;exitY=0.5;exitDx=0;exitDy=0;endArrow=none;endFill=0;" parent="QUErZSxBeOXtRjEbxhGZ-1" source="7aW_w24DgV95CwVqCJy3-14" edge="1">
          <mxGeometry relative="1" as="geometry">
            <mxPoint x="1160" y="395.2758620689656" as="targetPoint" />
          </mxGeometry>
        </mxCell>
        <mxCell id="7aW_w24DgV95CwVqCJy3-14" value="Адрес проведения" style="ellipse;whiteSpace=wrap;html=1;" parent="QUErZSxBeOXtRjEbxhGZ-1" vertex="1">
          <mxGeometry x="1180" y="375" width="120" height="40" as="geometry" />
        </mxCell>
        <mxCell id="7aW_w24DgV95CwVqCJy3-16" value="Тип турнира" style="ellipse;whiteSpace=wrap;html=1;" parent="QUErZSxBeOXtRjEbxhGZ-1" vertex="1">
          <mxGeometry x="1179" y="315" width="120" height="40" as="geometry" />
        </mxCell>
        <mxCell id="7aW_w24DgV95CwVqCJy3-17" style="edgeStyle=orthogonalEdgeStyle;rounded=0;orthogonalLoop=1;jettySize=auto;html=1;exitX=0;exitY=0.5;exitDx=0;exitDy=0;endArrow=none;endFill=0;" parent="QUErZSxBeOXtRjEbxhGZ-1" source="7aW_w24DgV95CwVqCJy3-18" edge="1">
          <mxGeometry relative="1" as="geometry">
            <mxPoint x="1159" y="235.27586206896558" as="targetPoint" />
          </mxGeometry>
        </mxCell>
        <mxCell id="7aW_w24DgV95CwVqCJy3-18" value="Имя" style="ellipse;whiteSpace=wrap;html=1;" parent="QUErZSxBeOXtRjEbxhGZ-1" vertex="1">
          <mxGeometry x="1179" y="215" width="120" height="40" as="geometry" />
        </mxCell>
        <mxCell id="7aW_w24DgV95CwVqCJy3-19" value="id" style="ellipse;whiteSpace=wrap;html=1;" parent="QUErZSxBeOXtRjEbxhGZ-1" vertex="1">
          <mxGeometry x="1179" y="160" width="120" height="40" as="geometry" />
        </mxCell>
        <mxCell id="7aW_w24DgV95CwVqCJy3-20" style="edgeStyle=orthogonalEdgeStyle;rounded=0;orthogonalLoop=1;jettySize=auto;html=1;endArrow=none;endFill=0;entryX=0.019;entryY=0.276;entryDx=0;entryDy=0;entryPerimeter=0;" parent="QUErZSxBeOXtRjEbxhGZ-1" target="7aW_w24DgV95CwVqCJy3-19" edge="1">
          <mxGeometry relative="1" as="geometry">
            <Array as="points">
              <mxPoint x="1160" y="180" />
              <mxPoint x="1180" y="180" />
              <mxPoint x="1180" y="176" />
            </Array>
            <mxPoint x="1160" y="530" as="sourcePoint" />
            <mxPoint x="1180" y="120" as="targetPoint" />
          </mxGeometry>
        </mxCell>
        <mxCell id="7aW_w24DgV95CwVqCJy3-23" value="Классификация&lt;br&gt;турнира" style="ellipse;whiteSpace=wrap;html=1;" parent="QUErZSxBeOXtRjEbxhGZ-1" vertex="1">
          <mxGeometry x="1180" y="265" width="120" height="40" as="geometry" />
        </mxCell>
        <mxCell id="7aW_w24DgV95CwVqCJy3-24" style="edgeStyle=orthogonalEdgeStyle;rounded=0;orthogonalLoop=1;jettySize=auto;html=1;exitX=0;exitY=0.5;exitDx=0;exitDy=0;endArrow=none;endFill=0;" parent="QUErZSxBeOXtRjEbxhGZ-1" edge="1">
          <mxGeometry relative="1" as="geometry">
            <mxPoint x="1160" y="284.7758620689656" as="targetPoint" />
            <mxPoint x="1180" y="284.5" as="sourcePoint" />
          </mxGeometry>
        </mxCell>
        <mxCell id="7aW_w24DgV95CwVqCJy3-26" style="edgeStyle=orthogonalEdgeStyle;rounded=0;orthogonalLoop=1;jettySize=auto;html=1;exitX=0;exitY=0.5;exitDx=0;exitDy=0;endArrow=none;endFill=0;" parent="QUErZSxBeOXtRjEbxhGZ-1" edge="1">
          <mxGeometry relative="1" as="geometry">
            <mxPoint x="1160" y="334.7758620689656" as="targetPoint" />
            <mxPoint x="1180" y="334.5" as="sourcePoint" />
          </mxGeometry>
        </mxCell>
        <mxCell id="7aW_w24DgV95CwVqCJy3-28" style="edgeStyle=orthogonalEdgeStyle;rounded=0;orthogonalLoop=1;jettySize=auto;html=1;entryX=1;entryY=0.5;entryDx=0;entryDy=0;endArrow=ERmany;endFill=0;exitX=0;exitY=0.5;exitDx=0;exitDy=0;" parent="QUErZSxBeOXtRjEbxhGZ-1" source="7aW_w24DgV95CwVqCJy3-1" edge="1">
          <mxGeometry relative="1" as="geometry">
            <mxPoint x="1360" y="560" as="sourcePoint" />
            <mxPoint x="1220" y="559.5" as="targetPoint" />
          </mxGeometry>
        </mxCell>
        <mxCell id="7aW_w24DgV95CwVqCJy3-30" value="id" style="ellipse;whiteSpace=wrap;html=1;" parent="QUErZSxBeOXtRjEbxhGZ-1" vertex="1">
          <mxGeometry x="1630" y="240" width="120" height="40" as="geometry" />
        </mxCell>
        <mxCell id="7aW_w24DgV95CwVqCJy3-31" style="edgeStyle=orthogonalEdgeStyle;rounded=0;orthogonalLoop=1;jettySize=auto;html=1;exitX=0;exitY=0.5;exitDx=0;exitDy=0;endArrow=none;endFill=0;" parent="QUErZSxBeOXtRjEbxhGZ-1" source="7aW_w24DgV95CwVqCJy3-32" edge="1">
          <mxGeometry relative="1" as="geometry">
            <mxPoint x="1610" y="310" as="targetPoint" />
          </mxGeometry>
        </mxCell>
        <mxCell id="7aW_w24DgV95CwVqCJy3-32" value="Имя" style="ellipse;whiteSpace=wrap;html=1;" parent="QUErZSxBeOXtRjEbxhGZ-1" vertex="1">
          <mxGeometry x="1630" y="290" width="120" height="40" as="geometry" />
        </mxCell>
        <mxCell id="7aW_w24DgV95CwVqCJy3-33" style="edgeStyle=orthogonalEdgeStyle;rounded=0;orthogonalLoop=1;jettySize=auto;html=1;exitX=0;exitY=0.5;exitDx=0;exitDy=0;endArrow=none;endFill=0;" parent="QUErZSxBeOXtRjEbxhGZ-1" edge="1">
          <mxGeometry relative="1" as="geometry">
            <mxPoint x="1610" y="360" as="targetPoint" />
            <mxPoint x="1630" y="360" as="sourcePoint" />
          </mxGeometry>
        </mxCell>
        <mxCell id="7aW_w24DgV95CwVqCJy3-35" style="edgeStyle=orthogonalEdgeStyle;rounded=0;orthogonalLoop=1;jettySize=auto;html=1;exitX=0;exitY=0.5;exitDx=0;exitDy=0;endArrow=none;endFill=0;" parent="QUErZSxBeOXtRjEbxhGZ-1" source="7aW_w24DgV95CwVqCJy3-36" edge="1">
          <mxGeometry relative="1" as="geometry">
            <mxPoint x="1610" y="410" as="targetPoint" />
          </mxGeometry>
        </mxCell>
        <mxCell id="7aW_w24DgV95CwVqCJy3-36" value="Адрес" style="ellipse;whiteSpace=wrap;html=1;" parent="QUErZSxBeOXtRjEbxhGZ-1" vertex="1">
          <mxGeometry x="1630" y="340" width="120" height="40" as="geometry" />
        </mxCell>
        <mxCell id="7aW_w24DgV95CwVqCJy3-37" style="edgeStyle=orthogonalEdgeStyle;rounded=0;orthogonalLoop=1;jettySize=auto;html=1;exitX=0;exitY=0.5;exitDx=0;exitDy=0;endArrow=none;endFill=0;" parent="QUErZSxBeOXtRjEbxhGZ-1" source="7aW_w24DgV95CwVqCJy3-38" edge="1">
          <mxGeometry relative="1" as="geometry">
            <mxPoint x="1610" y="420" as="targetPoint" />
          </mxGeometry>
        </mxCell>
        <mxCell id="7aW_w24DgV95CwVqCJy3-38" value="Почта" style="ellipse;whiteSpace=wrap;html=1;" parent="QUErZSxBeOXtRjEbxhGZ-1" vertex="1">
          <mxGeometry x="1630" y="390" width="120" height="40" as="geometry" />
        </mxCell>
        <mxCell id="7aW_w24DgV95CwVqCJy3-39" style="edgeStyle=orthogonalEdgeStyle;rounded=0;orthogonalLoop=1;jettySize=auto;html=1;exitX=0;exitY=0.5;exitDx=0;exitDy=0;endArrow=none;endFill=0;" parent="QUErZSxBeOXtRjEbxhGZ-1" source="7aW_w24DgV95CwVqCJy3-40" edge="1">
          <mxGeometry relative="1" as="geometry">
            <mxPoint x="1610" y="460" as="targetPoint" />
          </mxGeometry>
        </mxCell>
        <mxCell id="7aW_w24DgV95CwVqCJy3-40" value="Телефон" style="ellipse;whiteSpace=wrap;html=1;" parent="QUErZSxBeOXtRjEbxhGZ-1" vertex="1">
          <mxGeometry x="1630" y="440" width="120" height="40" as="geometry" />
        </mxCell>
        <mxCell id="7aW_w24DgV95CwVqCJy3-45" style="edgeStyle=orthogonalEdgeStyle;rounded=0;orthogonalLoop=1;jettySize=auto;html=1;endArrow=none;endFill=0;entryX=0;entryY=0.5;entryDx=0;entryDy=0;" parent="QUErZSxBeOXtRjEbxhGZ-1" source="7aW_w24DgV95CwVqCJy3-1" target="7aW_w24DgV95CwVqCJy3-30" edge="1">
          <mxGeometry relative="1" as="geometry">
            <Array as="points">
              <mxPoint x="1610" y="260" />
            </Array>
            <mxPoint x="1610" y="525" as="sourcePoint" />
            <mxPoint x="1630" y="115" as="targetPoint" />
          </mxGeometry>
        </mxCell>
        <mxCell id="7aW_w24DgV95CwVqCJy3-46" value="&lt;span style=&quot;font-weight: 700&quot;&gt;Участник&lt;/span&gt;" style="rounded=0;whiteSpace=wrap;html=1;" parent="QUErZSxBeOXtRjEbxhGZ-1" vertex="1">
          <mxGeometry x="1101" y="800" width="120" height="60" as="geometry" />
        </mxCell>
        <mxCell id="7aW_w24DgV95CwVqCJy3-47" style="edgeStyle=orthogonalEdgeStyle;rounded=0;orthogonalLoop=1;jettySize=auto;html=1;exitX=0.25;exitY=1;exitDx=0;exitDy=0;entryX=0;entryY=0.5;entryDx=0;entryDy=0;endArrow=none;endFill=0;" parent="QUErZSxBeOXtRjEbxhGZ-1" target="7aW_w24DgV95CwVqCJy3-57" edge="1">
          <mxGeometry relative="1" as="geometry">
            <Array as="points">
              <mxPoint x="1161" y="860" />
              <mxPoint x="1161" y="1100" />
            </Array>
            <mxPoint x="1181" y="860" as="sourcePoint" />
            <mxPoint x="1181" y="1150" as="targetPoint" />
          </mxGeometry>
        </mxCell>
        <mxCell id="7aW_w24DgV95CwVqCJy3-48" style="edgeStyle=orthogonalEdgeStyle;rounded=0;orthogonalLoop=1;jettySize=auto;html=1;exitX=0;exitY=0.5;exitDx=0;exitDy=0;endArrow=none;endFill=0;" parent="QUErZSxBeOXtRjEbxhGZ-1" source="7aW_w24DgV95CwVqCJy3-49" edge="1">
          <mxGeometry relative="1" as="geometry">
            <mxPoint x="1161" y="900" as="targetPoint" />
          </mxGeometry>
        </mxCell>
        <mxCell id="7aW_w24DgV95CwVqCJy3-49" value="id" style="ellipse;whiteSpace=wrap;html=1;" parent="QUErZSxBeOXtRjEbxhGZ-1" vertex="1">
          <mxGeometry x="1181" y="880" width="120" height="40" as="geometry" />
        </mxCell>
        <mxCell id="7aW_w24DgV95CwVqCJy3-50" style="edgeStyle=orthogonalEdgeStyle;rounded=0;orthogonalLoop=1;jettySize=auto;html=1;exitX=0;exitY=0.5;exitDx=0;exitDy=0;endArrow=none;endFill=0;" parent="QUErZSxBeOXtRjEbxhGZ-1" source="7aW_w24DgV95CwVqCJy3-51" edge="1">
          <mxGeometry relative="1" as="geometry">
            <mxPoint x="1161" y="950" as="targetPoint" />
          </mxGeometry>
        </mxCell>
        <mxCell id="7aW_w24DgV95CwVqCJy3-51" value="ФИО" style="ellipse;whiteSpace=wrap;html=1;" parent="QUErZSxBeOXtRjEbxhGZ-1" vertex="1">
          <mxGeometry x="1181" y="930" width="120" height="40" as="geometry" />
        </mxCell>
        <mxCell id="7aW_w24DgV95CwVqCJy3-52" style="edgeStyle=orthogonalEdgeStyle;rounded=0;orthogonalLoop=1;jettySize=auto;html=1;exitX=0;exitY=0.5;exitDx=0;exitDy=0;endArrow=none;endFill=0;" parent="QUErZSxBeOXtRjEbxhGZ-1" source="7aW_w24DgV95CwVqCJy3-53" edge="1">
          <mxGeometry relative="1" as="geometry">
            <mxPoint x="1161" y="1000" as="targetPoint" />
          </mxGeometry>
        </mxCell>
        <mxCell id="7aW_w24DgV95CwVqCJy3-53" value="Телефон" style="ellipse;whiteSpace=wrap;html=1;" parent="QUErZSxBeOXtRjEbxhGZ-1" vertex="1">
          <mxGeometry x="1181" y="980" width="120" height="40" as="geometry" />
        </mxCell>
        <mxCell id="7aW_w24DgV95CwVqCJy3-54" style="edgeStyle=orthogonalEdgeStyle;rounded=0;orthogonalLoop=1;jettySize=auto;html=1;exitX=0;exitY=0.5;exitDx=0;exitDy=0;endArrow=none;endFill=0;" parent="QUErZSxBeOXtRjEbxhGZ-1" source="7aW_w24DgV95CwVqCJy3-55" edge="1">
          <mxGeometry relative="1" as="geometry">
            <mxPoint x="1161" y="1050" as="targetPoint" />
          </mxGeometry>
        </mxCell>
        <mxCell id="7aW_w24DgV95CwVqCJy3-55" value="Почта" style="ellipse;whiteSpace=wrap;html=1;" parent="QUErZSxBeOXtRjEbxhGZ-1" vertex="1">
          <mxGeometry x="1181" y="1030" width="120" height="40" as="geometry" />
        </mxCell>
        <mxCell id="7aW_w24DgV95CwVqCJy3-56" style="edgeStyle=orthogonalEdgeStyle;rounded=0;orthogonalLoop=1;jettySize=auto;html=1;exitX=0;exitY=0.5;exitDx=0;exitDy=0;endArrow=none;endFill=0;" parent="QUErZSxBeOXtRjEbxhGZ-1" source="7aW_w24DgV95CwVqCJy3-57" edge="1">
          <mxGeometry relative="1" as="geometry">
            <mxPoint x="1161" y="1100" as="targetPoint" />
          </mxGeometry>
        </mxCell>
        <mxCell id="7aW_w24DgV95CwVqCJy3-57" value="Рейтинг" style="ellipse;whiteSpace=wrap;html=1;" parent="QUErZSxBeOXtRjEbxhGZ-1" vertex="1">
          <mxGeometry x="1181" y="1080" width="120" height="40" as="geometry" />
        </mxCell>
        <mxCell id="7aW_w24DgV95CwVqCJy3-61" style="edgeStyle=orthogonalEdgeStyle;rounded=0;orthogonalLoop=1;jettySize=auto;html=1;exitX=0.25;exitY=1;exitDx=0;exitDy=0;entryX=0;entryY=0.5;entryDx=0;entryDy=0;endArrow=none;endFill=0;" parent="QUErZSxBeOXtRjEbxhGZ-1" source="7aW_w24DgV95CwVqCJy3-62" target="7aW_w24DgV95CwVqCJy3-65" edge="1">
          <mxGeometry relative="1" as="geometry">
            <Array as="points">
              <mxPoint x="800" y="590" />
              <mxPoint x="800" y="675" />
            </Array>
          </mxGeometry>
        </mxCell>
        <mxCell id="7aW_w24DgV95CwVqCJy3-62" value="" style="rounded=0;whiteSpace=wrap;html=1;" parent="QUErZSxBeOXtRjEbxhGZ-1" vertex="1">
          <mxGeometry x="780" y="530" width="120" height="60" as="geometry" />
        </mxCell>
        <mxCell id="7aW_w24DgV95CwVqCJy3-63" style="edgeStyle=orthogonalEdgeStyle;rounded=0;orthogonalLoop=1;jettySize=auto;html=1;exitX=0;exitY=0.5;exitDx=0;exitDy=0;endArrow=none;endFill=0;" parent="QUErZSxBeOXtRjEbxhGZ-1" source="7aW_w24DgV95CwVqCJy3-64" edge="1">
          <mxGeometry relative="1" as="geometry">
            <mxPoint x="800" y="625.2758620689656" as="targetPoint" />
          </mxGeometry>
        </mxCell>
        <mxCell id="7aW_w24DgV95CwVqCJy3-64" value="id" style="ellipse;whiteSpace=wrap;html=1;" parent="QUErZSxBeOXtRjEbxhGZ-1" vertex="1">
          <mxGeometry x="820" y="605" width="120" height="40" as="geometry" />
        </mxCell>
        <mxCell id="7aW_w24DgV95CwVqCJy3-65" value="1е место" style="ellipse;whiteSpace=wrap;html=1;" parent="QUErZSxBeOXtRjEbxhGZ-1" vertex="1">
          <mxGeometry x="820" y="655" width="120" height="40" as="geometry" />
        </mxCell>
        <mxCell id="7aW_w24DgV95CwVqCJy3-66" value="&lt;span style=&quot;font-weight: 700&quot;&gt;Призовой фонд&lt;/span&gt;" style="rounded=0;whiteSpace=wrap;html=1;" parent="QUErZSxBeOXtRjEbxhGZ-1" vertex="1">
          <mxGeometry x="795" y="535" width="90" height="50" as="geometry" />
        </mxCell>
        <mxCell id="Q9agCAL6eanjBud23mkp-3" value="Имеет" style="rhombus;whiteSpace=wrap;html=1;" parent="QUErZSxBeOXtRjEbxhGZ-1" vertex="1">
          <mxGeometry x="1107" y="670" width="106" height="60" as="geometry" />
        </mxCell>
        <mxCell id="Q9agCAL6eanjBud23mkp-4" value="" style="endArrow=ERmany;html=1;rounded=0;exitX=0.5;exitY=1;exitDx=0;exitDy=0;endFill=0;entryX=0.5;entryY=0;entryDx=0;entryDy=0;" parent="QUErZSxBeOXtRjEbxhGZ-1" source="Q9agCAL6eanjBud23mkp-3" target="7aW_w24DgV95CwVqCJy3-46" edge="1">
          <mxGeometry width="50" height="50" relative="1" as="geometry">
            <mxPoint x="1160" y="800" as="sourcePoint" />
            <mxPoint x="1240" y="790" as="targetPoint" />
          </mxGeometry>
        </mxCell>
        <mxCell id="Q9agCAL6eanjBud23mkp-5" value="" style="endArrow=ERmany;html=1;rounded=0;entryX=0.5;entryY=1;entryDx=0;entryDy=0;exitX=0.5;exitY=0;exitDx=0;exitDy=0;endFill=0;" parent="QUErZSxBeOXtRjEbxhGZ-1" source="Q9agCAL6eanjBud23mkp-3" target="7aW_w24DgV95CwVqCJy3-2" edge="1">
          <mxGeometry width="50" height="50" relative="1" as="geometry">
            <mxPoint x="1160" y="680" as="sourcePoint" />
            <mxPoint x="1210" y="630" as="targetPoint" />
          </mxGeometry>
        </mxCell>
        <mxCell id="Q9agCAL6eanjBud23mkp-6" value="id" style="ellipse;whiteSpace=wrap;html=1;" parent="QUErZSxBeOXtRjEbxhGZ-1" vertex="1">
          <mxGeometry x="1290" y="680" width="120" height="40" as="geometry" />
        </mxCell>
        <mxCell id="Q9agCAL6eanjBud23mkp-7" value="Место" style="ellipse;whiteSpace=wrap;html=1;" parent="QUErZSxBeOXtRjEbxhGZ-1" vertex="1">
          <mxGeometry x="1290" y="740" width="120" height="40" as="geometry" />
        </mxCell>
        <mxCell id="Q9agCAL6eanjBud23mkp-8" value="" style="endArrow=none;html=1;rounded=0;entryX=1;entryY=0.5;entryDx=0;entryDy=0;exitX=0;exitY=0.5;exitDx=0;exitDy=0;" parent="QUErZSxBeOXtRjEbxhGZ-1" source="Q9agCAL6eanjBud23mkp-6" target="Q9agCAL6eanjBud23mkp-3" edge="1">
          <mxGeometry width="50" height="50" relative="1" as="geometry">
            <mxPoint x="1420" y="770" as="sourcePoint" />
            <mxPoint x="1470" y="720" as="targetPoint" />
          </mxGeometry>
        </mxCell>
        <mxCell id="Q9agCAL6eanjBud23mkp-9" value="" style="endArrow=none;html=1;rounded=0;" parent="QUErZSxBeOXtRjEbxhGZ-1" edge="1">
          <mxGeometry width="50" height="50" relative="1" as="geometry">
            <mxPoint x="1260" y="760" as="sourcePoint" />
            <mxPoint x="1260" y="700" as="targetPoint" />
          </mxGeometry>
        </mxCell>
        <mxCell id="Q9agCAL6eanjBud23mkp-11" value="" style="endArrow=none;html=1;rounded=0;entryX=0;entryY=0.5;entryDx=0;entryDy=0;" parent="QUErZSxBeOXtRjEbxhGZ-1" target="Q9agCAL6eanjBud23mkp-7" edge="1">
          <mxGeometry width="50" height="50" relative="1" as="geometry">
            <mxPoint x="1260" y="760" as="sourcePoint" />
            <mxPoint x="1470" y="720" as="targetPoint" />
          </mxGeometry>
        </mxCell>
        <mxCell id="Q9agCAL6eanjBud23mkp-12" value="2е место" style="ellipse;whiteSpace=wrap;html=1;" parent="QUErZSxBeOXtRjEbxhGZ-1" vertex="1">
          <mxGeometry x="820" y="705" width="120" height="40" as="geometry" />
        </mxCell>
        <mxCell id="Q9agCAL6eanjBud23mkp-13" value="3е место" style="ellipse;whiteSpace=wrap;html=1;" parent="QUErZSxBeOXtRjEbxhGZ-1" vertex="1">
          <mxGeometry x="820" y="755" width="120" height="40" as="geometry" />
        </mxCell>
        <mxCell id="Q9agCAL6eanjBud23mkp-15" style="edgeStyle=orthogonalEdgeStyle;rounded=0;orthogonalLoop=1;jettySize=auto;html=1;exitX=0;exitY=0.5;exitDx=0;exitDy=0;endArrow=none;endFill=0;" parent="QUErZSxBeOXtRjEbxhGZ-1" edge="1">
          <mxGeometry relative="1" as="geometry">
            <mxPoint x="800" y="774.7758620689656" as="targetPoint" />
            <mxPoint x="820" y="774.5" as="sourcePoint" />
          </mxGeometry>
        </mxCell>
        <mxCell id="Q9agCAL6eanjBud23mkp-16" style="edgeStyle=orthogonalEdgeStyle;rounded=0;orthogonalLoop=1;jettySize=auto;html=1;exitX=0;exitY=0.5;exitDx=0;exitDy=0;endArrow=none;endFill=0;" parent="QUErZSxBeOXtRjEbxhGZ-1" edge="1">
          <mxGeometry relative="1" as="geometry">
            <mxPoint x="800" y="725.2758620689656" as="targetPoint" />
            <mxPoint x="820" y="725" as="sourcePoint" />
          </mxGeometry>
        </mxCell>
        <mxCell id="Q9agCAL6eanjBud23mkp-17" style="edgeStyle=orthogonalEdgeStyle;rounded=0;orthogonalLoop=1;jettySize=auto;html=1;endArrow=none;endFill=0;" parent="QUErZSxBeOXtRjEbxhGZ-1" edge="1">
          <mxGeometry relative="1" as="geometry">
            <mxPoint x="800" y="675" as="targetPoint" />
            <mxPoint x="800" y="775" as="sourcePoint" />
          </mxGeometry>
        </mxCell>
        <mxCell id="Q9agCAL6eanjBud23mkp-18" value="Имеет" style="rhombus;whiteSpace=wrap;html=1;" parent="QUErZSxBeOXtRjEbxhGZ-1" vertex="1">
          <mxGeometry x="960" y="532.5" width="90" height="55" as="geometry" />
        </mxCell>
        <mxCell id="Q9agCAL6eanjBud23mkp-19" value="" style="endArrow=none;html=1;rounded=0;entryX=1;entryY=0.5;entryDx=0;entryDy=0;exitX=0;exitY=0.5;exitDx=0;exitDy=0;" parent="QUErZSxBeOXtRjEbxhGZ-1" source="7aW_w24DgV95CwVqCJy3-2" target="Q9agCAL6eanjBud23mkp-18" edge="1">
          <mxGeometry width="50" height="50" relative="1" as="geometry">
            <mxPoint x="1171" y="670" as="sourcePoint" />
            <mxPoint x="1170" y="600" as="targetPoint" />
          </mxGeometry>
        </mxCell>
        <mxCell id="Q9agCAL6eanjBud23mkp-20" value="" style="endArrow=none;html=1;rounded=0;entryX=1;entryY=0.5;entryDx=0;entryDy=0;exitX=0;exitY=0.5;exitDx=0;exitDy=0;" parent="QUErZSxBeOXtRjEbxhGZ-1" source="Q9agCAL6eanjBud23mkp-18" target="7aW_w24DgV95CwVqCJy3-62" edge="1">
          <mxGeometry width="50" height="50" relative="1" as="geometry">
            <mxPoint x="1181" y="680" as="sourcePoint" />
            <mxPoint x="1180" y="610" as="targetPoint" />
          </mxGeometry>
        </mxCell>
        <mxCell id="Q9agCAL6eanjBud23mkp-21" value="Имеет" style="rhombus;whiteSpace=wrap;html=1;" parent="QUErZSxBeOXtRjEbxhGZ-1" vertex="1">
          <mxGeometry x="1360" y="532.5" width="90" height="55" as="geometry" />
        </mxCell>
        <mxCell id="ZDGxcpGUXcvt19VqjmF7-0" value="Пол" style="ellipse;whiteSpace=wrap;html=1;" parent="QUErZSxBeOXtRjEbxhGZ-1" vertex="1">
          <mxGeometry x="1181" y="1129" width="120" height="40" as="geometry" />
        </mxCell>
        <mxCell id="ZDGxcpGUXcvt19VqjmF7-1" style="edgeStyle=orthogonalEdgeStyle;rounded=0;orthogonalLoop=1;jettySize=auto;html=1;exitX=0;exitY=0.5;exitDx=0;exitDy=0;endArrow=none;endFill=0;" parent="QUErZSxBeOXtRjEbxhGZ-1" edge="1">
          <mxGeometry relative="1" as="geometry">
            <mxPoint x="1159" y="1148.5" as="targetPoint" />
            <mxPoint x="1179" y="1148.5" as="sourcePoint" />
          </mxGeometry>
        </mxCell>
        <mxCell id="ZDGxcpGUXcvt19VqjmF7-2" style="edgeStyle=orthogonalEdgeStyle;rounded=0;orthogonalLoop=1;jettySize=auto;html=1;endArrow=none;endFill=0;" parent="QUErZSxBeOXtRjEbxhGZ-1" edge="1">
          <mxGeometry relative="1" as="geometry">
            <mxPoint x="1160" y="1100" as="targetPoint" />
            <mxPoint x="1160" y="1150" as="sourcePoint" />
          </mxGeometry>
        </mxCell>
      </root>
    </mxGraphModel>
  </diagram>
  <diagram id="zc6MAAFgtKUZl1t9um1T" name="Page-3">
    <mxGraphModel dx="2537" dy="2086" grid="1" gridSize="10" guides="1" tooltips="1" connect="1" arrows="1" fold="1" page="1" pageScale="1" pageWidth="850" pageHeight="1100" math="0" shadow="0">
      <root>
        <mxCell id="0" />
        <mxCell id="1" parent="0" />
        <mxCell id="xL5yXA5HZKOMHi_uFyqZ-79" style="edgeStyle=orthogonalEdgeStyle;rounded=0;orthogonalLoop=1;jettySize=auto;html=1;entryX=0;entryY=0.5;entryDx=0;entryDy=0;endArrow=none;startFill=0;" parent="1" source="xL5yXA5HZKOMHi_uFyqZ-80" target="xL5yXA5HZKOMHi_uFyqZ-86" edge="1">
          <mxGeometry relative="1" as="geometry" />
        </mxCell>
        <mxCell id="xL5yXA5HZKOMHi_uFyqZ-80" value="&lt;b&gt;Кинозалы&lt;/b&gt;" style="rounded=0;whiteSpace=wrap;html=1;" parent="1" vertex="1">
          <mxGeometry x="650" y="-70" width="120" height="60" as="geometry" />
        </mxCell>
        <mxCell id="xL5yXA5HZKOMHi_uFyqZ-81" style="edgeStyle=orthogonalEdgeStyle;rounded=0;orthogonalLoop=1;jettySize=auto;html=1;exitX=0;exitY=0.5;exitDx=0;exitDy=0;endArrow=none;endFill=0;" parent="1" source="xL5yXA5HZKOMHi_uFyqZ-82" edge="1">
          <mxGeometry relative="1" as="geometry">
            <mxPoint x="710.5" y="-124.72413793103442" as="targetPoint" />
          </mxGeometry>
        </mxCell>
        <mxCell id="xL5yXA5HZKOMHi_uFyqZ-82" value="Описание" style="ellipse;whiteSpace=wrap;html=1;" parent="1" vertex="1">
          <mxGeometry x="730.5" y="-145" width="120" height="40" as="geometry" />
        </mxCell>
        <mxCell id="xL5yXA5HZKOMHi_uFyqZ-83" value="Тип" style="ellipse;whiteSpace=wrap;html=1;" parent="1" vertex="1">
          <mxGeometry x="729.5" y="-205" width="120" height="40" as="geometry" />
        </mxCell>
        <mxCell id="xL5yXA5HZKOMHi_uFyqZ-84" style="edgeStyle=orthogonalEdgeStyle;rounded=0;orthogonalLoop=1;jettySize=auto;html=1;exitX=0;exitY=0.5;exitDx=0;exitDy=0;endArrow=none;endFill=0;" parent="1" source="xL5yXA5HZKOMHi_uFyqZ-85" edge="1">
          <mxGeometry relative="1" as="geometry">
            <mxPoint x="709.5" y="-284.7241379310344" as="targetPoint" />
          </mxGeometry>
        </mxCell>
        <mxCell id="xL5yXA5HZKOMHi_uFyqZ-85" value="Название" style="ellipse;whiteSpace=wrap;html=1;" parent="1" vertex="1">
          <mxGeometry x="729.5" y="-305" width="120" height="40" as="geometry" />
        </mxCell>
        <mxCell id="xL5yXA5HZKOMHi_uFyqZ-86" value="id" style="ellipse;whiteSpace=wrap;html=1;" parent="1" vertex="1">
          <mxGeometry x="730.5" y="-360" width="120" height="40" as="geometry" />
        </mxCell>
        <mxCell id="xL5yXA5HZKOMHi_uFyqZ-87" value="Вместимость" style="ellipse;whiteSpace=wrap;html=1;" parent="1" vertex="1">
          <mxGeometry x="730.5" y="-255" width="120" height="40" as="geometry" />
        </mxCell>
        <mxCell id="xL5yXA5HZKOMHi_uFyqZ-88" style="edgeStyle=orthogonalEdgeStyle;rounded=0;orthogonalLoop=1;jettySize=auto;html=1;exitX=0;exitY=0.5;exitDx=0;exitDy=0;endArrow=none;endFill=0;" parent="1" edge="1">
          <mxGeometry relative="1" as="geometry">
            <mxPoint x="710.5" y="-235.22413793103442" as="targetPoint" />
            <mxPoint x="730.5" y="-235.5" as="sourcePoint" />
          </mxGeometry>
        </mxCell>
        <mxCell id="xL5yXA5HZKOMHi_uFyqZ-89" style="edgeStyle=orthogonalEdgeStyle;rounded=0;orthogonalLoop=1;jettySize=auto;html=1;exitX=0;exitY=0.5;exitDx=0;exitDy=0;endArrow=none;endFill=0;" parent="1" edge="1">
          <mxGeometry relative="1" as="geometry">
            <mxPoint x="710.5" y="-185.22413793103442" as="targetPoint" />
            <mxPoint x="730.5" y="-185.5" as="sourcePoint" />
          </mxGeometry>
        </mxCell>
        <mxCell id="xL5yXA5HZKOMHi_uFyqZ-90" style="edgeStyle=orthogonalEdgeStyle;rounded=0;orthogonalLoop=1;jettySize=auto;html=1;entryX=0;entryY=0.5;entryDx=0;entryDy=0;endArrow=none;startFill=0;" parent="1" source="xL5yXA5HZKOMHi_uFyqZ-91" target="xL5yXA5HZKOMHi_uFyqZ-97" edge="1">
          <mxGeometry relative="1" as="geometry" />
        </mxCell>
        <mxCell id="xL5yXA5HZKOMHi_uFyqZ-91" value="&lt;b&gt;Фильмы&lt;/b&gt;" style="rounded=0;whiteSpace=wrap;html=1;" parent="1" vertex="1">
          <mxGeometry x="-69.5" y="-70" width="120" height="60" as="geometry" />
        </mxCell>
        <mxCell id="xL5yXA5HZKOMHi_uFyqZ-92" style="edgeStyle=orthogonalEdgeStyle;rounded=0;orthogonalLoop=1;jettySize=auto;html=1;exitX=0;exitY=0.5;exitDx=0;exitDy=0;endArrow=none;endFill=0;" parent="1" source="xL5yXA5HZKOMHi_uFyqZ-93" edge="1">
          <mxGeometry relative="1" as="geometry">
            <mxPoint x="-10" y="-289.7241379310344" as="targetPoint" />
          </mxGeometry>
        </mxCell>
        <mxCell id="xL5yXA5HZKOMHi_uFyqZ-93" value="Описание" style="ellipse;whiteSpace=wrap;html=1;" parent="1" vertex="1">
          <mxGeometry x="10" y="-310" width="120" height="40" as="geometry" />
        </mxCell>
        <mxCell id="xL5yXA5HZKOMHi_uFyqZ-94" value="Рейтинг" style="ellipse;whiteSpace=wrap;html=1;" parent="1" vertex="1">
          <mxGeometry x="9" y="-370" width="120" height="40" as="geometry" />
        </mxCell>
        <mxCell id="xL5yXA5HZKOMHi_uFyqZ-95" style="edgeStyle=orthogonalEdgeStyle;rounded=0;orthogonalLoop=1;jettySize=auto;html=1;exitX=0;exitY=0.5;exitDx=0;exitDy=0;endArrow=none;endFill=0;" parent="1" source="xL5yXA5HZKOMHi_uFyqZ-96" edge="1">
          <mxGeometry relative="1" as="geometry">
            <mxPoint x="-11" y="-449.7241379310344" as="targetPoint" />
          </mxGeometry>
        </mxCell>
        <mxCell id="xL5yXA5HZKOMHi_uFyqZ-96" value="Название" style="ellipse;whiteSpace=wrap;html=1;" parent="1" vertex="1">
          <mxGeometry x="9" y="-470" width="120" height="40" as="geometry" />
        </mxCell>
        <mxCell id="xL5yXA5HZKOMHi_uFyqZ-97" value="id" style="ellipse;whiteSpace=wrap;html=1;" parent="1" vertex="1">
          <mxGeometry x="10" y="-525" width="120" height="40" as="geometry" />
        </mxCell>
        <mxCell id="xL5yXA5HZKOMHi_uFyqZ-98" value="Продолжительность" style="ellipse;whiteSpace=wrap;html=1;" parent="1" vertex="1">
          <mxGeometry x="10" y="-420" width="120" height="40" as="geometry" />
        </mxCell>
        <mxCell id="xL5yXA5HZKOMHi_uFyqZ-99" style="edgeStyle=orthogonalEdgeStyle;rounded=0;orthogonalLoop=1;jettySize=auto;html=1;exitX=0;exitY=0.5;exitDx=0;exitDy=0;endArrow=none;endFill=0;" parent="1" edge="1">
          <mxGeometry relative="1" as="geometry">
            <mxPoint x="-10" y="-400.2241379310344" as="targetPoint" />
            <mxPoint x="10" y="-400.5" as="sourcePoint" />
          </mxGeometry>
        </mxCell>
        <mxCell id="xL5yXA5HZKOMHi_uFyqZ-100" style="edgeStyle=orthogonalEdgeStyle;rounded=0;orthogonalLoop=1;jettySize=auto;html=1;exitX=0;exitY=0.5;exitDx=0;exitDy=0;endArrow=none;endFill=0;" parent="1" edge="1">
          <mxGeometry relative="1" as="geometry">
            <mxPoint x="-10" y="-350.2241379310344" as="targetPoint" />
            <mxPoint x="10" y="-350.5" as="sourcePoint" />
          </mxGeometry>
        </mxCell>
        <mxCell id="xL5yXA5HZKOMHi_uFyqZ-101" style="edgeStyle=orthogonalEdgeStyle;rounded=0;orthogonalLoop=1;jettySize=auto;html=1;exitX=0;exitY=0.5;exitDx=0;exitDy=0;endArrow=none;endFill=0;" parent="1" source="xL5yXA5HZKOMHi_uFyqZ-102" edge="1">
          <mxGeometry relative="1" as="geometry">
            <mxPoint x="-11" y="-234.72413793103442" as="targetPoint" />
          </mxGeometry>
        </mxCell>
        <mxCell id="xL5yXA5HZKOMHi_uFyqZ-102" value="Дата выхода" style="ellipse;whiteSpace=wrap;html=1;" parent="1" vertex="1">
          <mxGeometry x="9" y="-255" width="120" height="40" as="geometry" />
        </mxCell>
        <mxCell id="xL5yXA5HZKOMHi_uFyqZ-103" style="edgeStyle=orthogonalEdgeStyle;rounded=0;orthogonalLoop=1;jettySize=auto;html=1;exitX=0;exitY=0.5;exitDx=0;exitDy=0;endArrow=none;endFill=0;" parent="1" source="xL5yXA5HZKOMHi_uFyqZ-104" edge="1">
          <mxGeometry relative="1" as="geometry">
            <mxPoint x="-11" y="-179.72413793103442" as="targetPoint" />
          </mxGeometry>
        </mxCell>
        <mxCell id="xL5yXA5HZKOMHi_uFyqZ-104" value="Возрастное ограничение" style="ellipse;whiteSpace=wrap;html=1;" parent="1" vertex="1">
          <mxGeometry x="9" y="-200" width="120" height="40" as="geometry" />
        </mxCell>
        <mxCell id="xL5yXA5HZKOMHi_uFyqZ-106" style="edgeStyle=orthogonalEdgeStyle;rounded=0;orthogonalLoop=1;jettySize=auto;html=1;entryX=0;entryY=0.5;entryDx=0;entryDy=0;endArrow=ERmany;endFill=0;exitX=1;exitY=0.5;exitDx=0;exitDy=0;startArrow=none;startFill=0;" parent="1" source="xL5yXA5HZKOMHi_uFyqZ-136" target="xL5yXA5HZKOMHi_uFyqZ-80" edge="1">
          <mxGeometry relative="1" as="geometry">
            <mxPoint x="521" y="-40.5" as="sourcePoint" />
          </mxGeometry>
        </mxCell>
        <mxCell id="xL5yXA5HZKOMHi_uFyqZ-107" style="edgeStyle=orthogonalEdgeStyle;rounded=0;orthogonalLoop=1;jettySize=auto;html=1;exitX=0;exitY=0.5;exitDx=0;exitDy=0;entryX=1;entryY=0.5;entryDx=0;entryDy=0;endArrow=ERmany;endFill=0;startArrow=none;startFill=0;" parent="1" source="xL5yXA5HZKOMHi_uFyqZ-136" target="xL5yXA5HZKOMHi_uFyqZ-91" edge="1">
          <mxGeometry relative="1" as="geometry">
            <mxPoint x="240" y="-40" as="sourcePoint" />
          </mxGeometry>
        </mxCell>
        <mxCell id="xL5yXA5HZKOMHi_uFyqZ-109" style="edgeStyle=orthogonalEdgeStyle;rounded=0;orthogonalLoop=1;jettySize=auto;html=1;exitX=0;exitY=0.5;exitDx=0;exitDy=0;endArrow=none;endFill=0;" parent="1" source="xL5yXA5HZKOMHi_uFyqZ-110" edge="1">
          <mxGeometry relative="1" as="geometry">
            <mxPoint x="451" y="-280.2241379310344" as="targetPoint" />
          </mxGeometry>
        </mxCell>
        <mxCell id="xL5yXA5HZKOMHi_uFyqZ-110" value="id кинозала" style="ellipse;whiteSpace=wrap;html=1;" parent="1" vertex="1">
          <mxGeometry x="471" y="-300.5" width="120" height="40" as="geometry" />
        </mxCell>
        <mxCell id="xL5yXA5HZKOMHi_uFyqZ-111" value="id фильма" style="ellipse;whiteSpace=wrap;html=1;" parent="1" vertex="1">
          <mxGeometry x="471" y="-245.5" width="120" height="40" as="geometry" />
        </mxCell>
        <mxCell id="xL5yXA5HZKOMHi_uFyqZ-117" style="edgeStyle=orthogonalEdgeStyle;rounded=0;orthogonalLoop=1;jettySize=auto;html=1;entryX=0;entryY=0.5;entryDx=0;entryDy=0;endArrow=none;startFill=0;" parent="1" source="xL5yXA5HZKOMHi_uFyqZ-113" target="xL5yXA5HZKOMHi_uFyqZ-116" edge="1">
          <mxGeometry relative="1" as="geometry" />
        </mxCell>
        <mxCell id="xL5yXA5HZKOMHi_uFyqZ-113" value="&lt;b&gt;Жанры&lt;/b&gt;" style="rounded=0;whiteSpace=wrap;html=1;" parent="1" vertex="1">
          <mxGeometry x="-480" y="-70" width="120" height="60" as="geometry" />
        </mxCell>
        <mxCell id="xL5yXA5HZKOMHi_uFyqZ-114" style="edgeStyle=orthogonalEdgeStyle;rounded=0;orthogonalLoop=1;jettySize=auto;html=1;exitX=0;exitY=0.5;exitDx=0;exitDy=0;endArrow=none;endFill=0;" parent="1" source="xL5yXA5HZKOMHi_uFyqZ-115" edge="1">
          <mxGeometry relative="1" as="geometry">
            <mxPoint x="-420" y="-104.72413793103442" as="targetPoint" />
          </mxGeometry>
        </mxCell>
        <mxCell id="xL5yXA5HZKOMHi_uFyqZ-115" value="Название" style="ellipse;whiteSpace=wrap;html=1;" parent="1" vertex="1">
          <mxGeometry x="-400" y="-125" width="120" height="40" as="geometry" />
        </mxCell>
        <mxCell id="xL5yXA5HZKOMHi_uFyqZ-116" value="id" style="ellipse;whiteSpace=wrap;html=1;" parent="1" vertex="1">
          <mxGeometry x="-399" y="-180" width="120" height="40" as="geometry" />
        </mxCell>
        <mxCell id="xL5yXA5HZKOMHi_uFyqZ-118" style="edgeStyle=orthogonalEdgeStyle;rounded=0;orthogonalLoop=1;jettySize=auto;html=1;entryX=0;entryY=0.5;entryDx=0;entryDy=0;endArrow=ERmany;endFill=0;" parent="1" source="xL5yXA5HZKOMHi_uFyqZ-120" edge="1">
          <mxGeometry relative="1" as="geometry">
            <mxPoint x="-69" y="-40" as="targetPoint" />
          </mxGeometry>
        </mxCell>
        <mxCell id="xL5yXA5HZKOMHi_uFyqZ-124" style="edgeStyle=orthogonalEdgeStyle;rounded=0;orthogonalLoop=1;jettySize=auto;html=1;exitX=0;exitY=0.5;exitDx=0;exitDy=0;entryX=1;entryY=0.5;entryDx=0;entryDy=0;endArrow=ERmany;endFill=0;" parent="1" target="xL5yXA5HZKOMHi_uFyqZ-113" edge="1">
          <mxGeometry relative="1" as="geometry">
            <mxPoint x="-259.5" y="-40" as="sourcePoint" />
          </mxGeometry>
        </mxCell>
        <mxCell id="UBR0x5_iBrmlrGrRdMYh-28" style="edgeStyle=orthogonalEdgeStyle;rounded=0;orthogonalLoop=1;jettySize=auto;html=1;entryX=0;entryY=0.5;entryDx=0;entryDy=0;endArrow=none;startFill=0;" parent="1" source="xL5yXA5HZKOMHi_uFyqZ-120" target="xL5yXA5HZKOMHi_uFyqZ-123" edge="1">
          <mxGeometry relative="1" as="geometry" />
        </mxCell>
        <mxCell id="xL5yXA5HZKOMHi_uFyqZ-120" value="Относится" style="rhombus;whiteSpace=wrap;html=1;" parent="1" vertex="1">
          <mxGeometry x="-270" y="-67.5" width="90" height="55" as="geometry" />
        </mxCell>
        <mxCell id="xL5yXA5HZKOMHi_uFyqZ-121" style="edgeStyle=orthogonalEdgeStyle;rounded=0;orthogonalLoop=1;jettySize=auto;html=1;exitX=0;exitY=0.5;exitDx=0;exitDy=0;endArrow=none;endFill=0;" parent="1" edge="1">
          <mxGeometry relative="1" as="geometry">
            <mxPoint x="-225" y="19.77586206896558" as="targetPoint" />
            <mxPoint x="-205" y="19.5" as="sourcePoint" />
          </mxGeometry>
        </mxCell>
        <mxCell id="xL5yXA5HZKOMHi_uFyqZ-122" value="id жанра" style="ellipse;whiteSpace=wrap;html=1;" parent="1" vertex="1">
          <mxGeometry x="-205" width="120" height="40" as="geometry" />
        </mxCell>
        <mxCell id="xL5yXA5HZKOMHi_uFyqZ-123" value="id фильма" style="ellipse;whiteSpace=wrap;html=1;" parent="1" vertex="1">
          <mxGeometry x="-205" y="50" width="120" height="40" as="geometry" />
        </mxCell>
        <mxCell id="xL5yXA5HZKOMHi_uFyqZ-125" value="Общие кассовые сборы" style="ellipse;whiteSpace=wrap;html=1;" parent="1" vertex="1">
          <mxGeometry x="10" y="-145" width="120" height="40" as="geometry" />
        </mxCell>
        <mxCell id="xL5yXA5HZKOMHi_uFyqZ-127" style="edgeStyle=orthogonalEdgeStyle;rounded=0;orthogonalLoop=1;jettySize=auto;html=1;exitX=0;exitY=0.5;exitDx=0;exitDy=0;endArrow=none;endFill=0;" parent="1" edge="1">
          <mxGeometry relative="1" as="geometry">
            <mxPoint x="-10.5" y="-124.72413793103442" as="targetPoint" />
            <mxPoint x="10" y="-125" as="sourcePoint" />
          </mxGeometry>
        </mxCell>
        <mxCell id="xL5yXA5HZKOMHi_uFyqZ-128" value="Время начала&lt;br&gt;сеанса" style="ellipse;whiteSpace=wrap;html=1;" parent="1" vertex="1">
          <mxGeometry x="471" y="-195.5" width="120" height="40" as="geometry" />
        </mxCell>
        <mxCell id="xL5yXA5HZKOMHi_uFyqZ-129" value="id" style="ellipse;whiteSpace=wrap;html=1;" parent="1" vertex="1">
          <mxGeometry x="471" y="-350.5" width="120" height="40" as="geometry" />
        </mxCell>
        <mxCell id="xL5yXA5HZKOMHi_uFyqZ-132" style="edgeStyle=orthogonalEdgeStyle;rounded=0;orthogonalLoop=1;jettySize=auto;html=1;exitX=0;exitY=0.5;exitDx=0;exitDy=0;endArrow=none;endFill=0;" parent="1" edge="1">
          <mxGeometry relative="1" as="geometry">
            <mxPoint x="451" y="-225.72413793103442" as="targetPoint" />
            <mxPoint x="471" y="-226" as="sourcePoint" />
          </mxGeometry>
        </mxCell>
        <mxCell id="xL5yXA5HZKOMHi_uFyqZ-133" style="edgeStyle=orthogonalEdgeStyle;rounded=0;orthogonalLoop=1;jettySize=auto;html=1;exitX=0;exitY=0.5;exitDx=0;exitDy=0;endArrow=none;endFill=0;" parent="1" edge="1">
          <mxGeometry relative="1" as="geometry">
            <mxPoint x="451" y="-175.72413793103442" as="targetPoint" />
            <mxPoint x="471" y="-176" as="sourcePoint" />
          </mxGeometry>
        </mxCell>
        <mxCell id="xL5yXA5HZKOMHi_uFyqZ-134" value="Язык показа" style="ellipse;whiteSpace=wrap;html=1;" parent="1" vertex="1">
          <mxGeometry x="471" y="-135.5" width="120" height="40" as="geometry" />
        </mxCell>
        <mxCell id="xL5yXA5HZKOMHi_uFyqZ-135" style="edgeStyle=orthogonalEdgeStyle;rounded=0;orthogonalLoop=1;jettySize=auto;html=1;exitX=0;exitY=0.5;exitDx=0;exitDy=0;endArrow=none;endFill=0;" parent="1" edge="1">
          <mxGeometry relative="1" as="geometry">
            <mxPoint x="451" y="-115.72413793103442" as="targetPoint" />
            <mxPoint x="471" y="-116" as="sourcePoint" />
          </mxGeometry>
        </mxCell>
        <mxCell id="xL5yXA5HZKOMHi_uFyqZ-137" style="edgeStyle=orthogonalEdgeStyle;rounded=0;orthogonalLoop=1;jettySize=auto;html=1;entryX=0;entryY=0.5;entryDx=0;entryDy=0;endArrow=none;startFill=0;" parent="1" source="xL5yXA5HZKOMHi_uFyqZ-136" target="xL5yXA5HZKOMHi_uFyqZ-129" edge="1">
          <mxGeometry relative="1" as="geometry" />
        </mxCell>
        <mxCell id="xL5yXA5HZKOMHi_uFyqZ-136" value="Сеансы" style="rhombus;whiteSpace=wrap;html=1;" parent="1" vertex="1">
          <mxGeometry x="406" y="-67.5" width="90" height="55" as="geometry" />
        </mxCell>
        <mxCell id="xL5yXA5HZKOMHi_uFyqZ-138" style="edgeStyle=orthogonalEdgeStyle;rounded=0;orthogonalLoop=1;jettySize=auto;html=1;entryX=0;entryY=0.5;entryDx=0;entryDy=0;endArrow=none;startFill=0;" parent="1" source="xL5yXA5HZKOMHi_uFyqZ-139" target="xL5yXA5HZKOMHi_uFyqZ-145" edge="1">
          <mxGeometry relative="1" as="geometry" />
        </mxCell>
        <mxCell id="UBR0x5_iBrmlrGrRdMYh-3" style="edgeStyle=orthogonalEdgeStyle;rounded=0;orthogonalLoop=1;jettySize=auto;html=1;entryX=0.5;entryY=1;entryDx=0;entryDy=0;endArrow=none;endFill=0;startFill=0;startArrow=ERmany;" parent="1" source="xL5yXA5HZKOMHi_uFyqZ-139" target="xL5yXA5HZKOMHi_uFyqZ-136" edge="1">
          <mxGeometry relative="1" as="geometry" />
        </mxCell>
        <mxCell id="xL5yXA5HZKOMHi_uFyqZ-139" value="&lt;b&gt;Билеты&lt;/b&gt;" style="rounded=0;whiteSpace=wrap;html=1;" parent="1" vertex="1">
          <mxGeometry x="650" y="10" width="120" height="60" as="geometry" />
        </mxCell>
        <mxCell id="xL5yXA5HZKOMHi_uFyqZ-140" style="edgeStyle=orthogonalEdgeStyle;rounded=0;orthogonalLoop=1;jettySize=auto;html=1;exitX=0;exitY=0.5;exitDx=0;exitDy=0;endArrow=none;endFill=0;entryX=0.5;entryY=1;entryDx=0;entryDy=0;" parent="1" source="xL5yXA5HZKOMHi_uFyqZ-141" target="xL5yXA5HZKOMHi_uFyqZ-139" edge="1">
          <mxGeometry relative="1" as="geometry">
            <mxPoint x="710" y="330.2758620689656" as="targetPoint" />
          </mxGeometry>
        </mxCell>
        <mxCell id="xL5yXA5HZKOMHi_uFyqZ-141" value="Статус бронирования" style="ellipse;whiteSpace=wrap;html=1;" parent="1" vertex="1">
          <mxGeometry x="730" y="310" width="120" height="40" as="geometry" />
        </mxCell>
        <mxCell id="xL5yXA5HZKOMHi_uFyqZ-142" value="Тип" style="ellipse;whiteSpace=wrap;html=1;" parent="1" vertex="1">
          <mxGeometry x="729" y="250" width="120" height="40" as="geometry" />
        </mxCell>
        <mxCell id="xL5yXA5HZKOMHi_uFyqZ-143" style="edgeStyle=orthogonalEdgeStyle;rounded=0;orthogonalLoop=1;jettySize=auto;html=1;exitX=0;exitY=0.5;exitDx=0;exitDy=0;endArrow=none;endFill=0;" parent="1" source="xL5yXA5HZKOMHi_uFyqZ-144" edge="1">
          <mxGeometry relative="1" as="geometry">
            <mxPoint x="709" y="170.27586206896558" as="targetPoint" />
          </mxGeometry>
        </mxCell>
        <mxCell id="xL5yXA5HZKOMHi_uFyqZ-144" value="Номер места" style="ellipse;whiteSpace=wrap;html=1;" parent="1" vertex="1">
          <mxGeometry x="729" y="150" width="120" height="40" as="geometry" />
        </mxCell>
        <mxCell id="xL5yXA5HZKOMHi_uFyqZ-145" value="id" style="ellipse;whiteSpace=wrap;html=1;" parent="1" vertex="1">
          <mxGeometry x="730" y="92.5" width="120" height="40" as="geometry" />
        </mxCell>
        <mxCell id="xL5yXA5HZKOMHi_uFyqZ-146" value="Цена" style="ellipse;whiteSpace=wrap;html=1;" parent="1" vertex="1">
          <mxGeometry x="730" y="200" width="120" height="40" as="geometry" />
        </mxCell>
        <mxCell id="xL5yXA5HZKOMHi_uFyqZ-147" style="edgeStyle=orthogonalEdgeStyle;rounded=0;orthogonalLoop=1;jettySize=auto;html=1;exitX=0;exitY=0.5;exitDx=0;exitDy=0;endArrow=none;endFill=0;" parent="1" edge="1">
          <mxGeometry relative="1" as="geometry">
            <mxPoint x="710" y="219.77586206896558" as="targetPoint" />
            <mxPoint x="730" y="219.5" as="sourcePoint" />
          </mxGeometry>
        </mxCell>
        <mxCell id="xL5yXA5HZKOMHi_uFyqZ-148" style="edgeStyle=orthogonalEdgeStyle;rounded=0;orthogonalLoop=1;jettySize=auto;html=1;exitX=0;exitY=0.5;exitDx=0;exitDy=0;endArrow=none;endFill=0;" parent="1" edge="1">
          <mxGeometry relative="1" as="geometry">
            <mxPoint x="710" y="269.7758620689656" as="targetPoint" />
            <mxPoint x="730" y="269.5" as="sourcePoint" />
          </mxGeometry>
        </mxCell>
        <mxCell id="UBR0x5_iBrmlrGrRdMYh-33" style="edgeStyle=orthogonalEdgeStyle;rounded=0;orthogonalLoop=1;jettySize=auto;html=1;entryX=0;entryY=0.5;entryDx=0;entryDy=0;endArrow=none;startFill=0;" parent="1" source="UBR0x5_iBrmlrGrRdMYh-4" target="UBR0x5_iBrmlrGrRdMYh-32" edge="1">
          <mxGeometry relative="1" as="geometry" />
        </mxCell>
        <mxCell id="UBR0x5_iBrmlrGrRdMYh-42" style="edgeStyle=orthogonalEdgeStyle;rounded=0;orthogonalLoop=1;jettySize=auto;html=1;endArrow=none;startFill=0;" parent="1" source="UBR0x5_iBrmlrGrRdMYh-4" target="UBR0x5_iBrmlrGrRdMYh-34" edge="1">
          <mxGeometry relative="1" as="geometry" />
        </mxCell>
        <mxCell id="UBR0x5_iBrmlrGrRdMYh-4" value="&lt;b&gt;Пользователи&lt;/b&gt;" style="rounded=0;whiteSpace=wrap;html=1;" parent="1" vertex="1">
          <mxGeometry x="145.5" y="100" width="120" height="60" as="geometry" />
        </mxCell>
        <mxCell id="UBR0x5_iBrmlrGrRdMYh-6" style="edgeStyle=orthogonalEdgeStyle;rounded=0;orthogonalLoop=1;jettySize=auto;html=1;exitX=0;exitY=0.5;exitDx=0;exitDy=0;endArrow=none;endFill=0;" parent="1" source="UBR0x5_iBrmlrGrRdMYh-7" edge="1">
          <mxGeometry relative="1" as="geometry">
            <mxPoint x="206" y="160" as="targetPoint" />
          </mxGeometry>
        </mxCell>
        <mxCell id="UBR0x5_iBrmlrGrRdMYh-7" value="Год рождения" style="ellipse;whiteSpace=wrap;html=1;" parent="1" vertex="1">
          <mxGeometry x="225.5" y="390" width="120" height="40" as="geometry" />
        </mxCell>
        <mxCell id="UBR0x5_iBrmlrGrRdMYh-8" value="Пароль" style="ellipse;whiteSpace=wrap;html=1;" parent="1" vertex="1">
          <mxGeometry x="224.5" y="330" width="120" height="40" as="geometry" />
        </mxCell>
        <mxCell id="UBR0x5_iBrmlrGrRdMYh-9" style="edgeStyle=orthogonalEdgeStyle;rounded=0;orthogonalLoop=1;jettySize=auto;html=1;exitX=0;exitY=0.5;exitDx=0;exitDy=0;endArrow=none;endFill=0;" parent="1" source="UBR0x5_iBrmlrGrRdMYh-10" edge="1">
          <mxGeometry relative="1" as="geometry">
            <mxPoint x="204.5" y="250.27586206896558" as="targetPoint" />
          </mxGeometry>
        </mxCell>
        <mxCell id="UBR0x5_iBrmlrGrRdMYh-10" value="Имя" style="ellipse;whiteSpace=wrap;html=1;" parent="1" vertex="1">
          <mxGeometry x="224.5" y="230" width="120" height="40" as="geometry" />
        </mxCell>
        <mxCell id="UBR0x5_iBrmlrGrRdMYh-11" value="id" style="ellipse;whiteSpace=wrap;html=1;" parent="1" vertex="1">
          <mxGeometry x="225.5" y="172.5" width="120" height="40" as="geometry" />
        </mxCell>
        <mxCell id="UBR0x5_iBrmlrGrRdMYh-12" value="Почта" style="ellipse;whiteSpace=wrap;html=1;" parent="1" vertex="1">
          <mxGeometry x="225.5" y="280" width="120" height="40" as="geometry" />
        </mxCell>
        <mxCell id="UBR0x5_iBrmlrGrRdMYh-13" style="edgeStyle=orthogonalEdgeStyle;rounded=0;orthogonalLoop=1;jettySize=auto;html=1;exitX=0;exitY=0.5;exitDx=0;exitDy=0;endArrow=none;endFill=0;" parent="1" edge="1">
          <mxGeometry relative="1" as="geometry">
            <mxPoint x="205.5" y="299.7758620689656" as="targetPoint" />
            <mxPoint x="225.5" y="299.5" as="sourcePoint" />
          </mxGeometry>
        </mxCell>
        <mxCell id="UBR0x5_iBrmlrGrRdMYh-14" style="edgeStyle=orthogonalEdgeStyle;rounded=0;orthogonalLoop=1;jettySize=auto;html=1;exitX=0;exitY=0.5;exitDx=0;exitDy=0;endArrow=none;endFill=0;" parent="1" edge="1">
          <mxGeometry relative="1" as="geometry">
            <mxPoint x="205.5" y="349.7758620689656" as="targetPoint" />
            <mxPoint x="225.5" y="349.5" as="sourcePoint" />
          </mxGeometry>
        </mxCell>
        <mxCell id="UBR0x5_iBrmlrGrRdMYh-15" style="edgeStyle=orthogonalEdgeStyle;rounded=0;orthogonalLoop=1;jettySize=auto;html=1;exitX=0;exitY=0.5;exitDx=0;exitDy=0;endArrow=none;endFill=0;" parent="1" edge="1">
          <mxGeometry relative="1" as="geometry">
            <mxPoint x="206.5" y="192.27586206896558" as="targetPoint" />
            <mxPoint x="226.5" y="192" as="sourcePoint" />
          </mxGeometry>
        </mxCell>
        <mxCell id="UBR0x5_iBrmlrGrRdMYh-17" style="edgeStyle=orthogonalEdgeStyle;rounded=0;orthogonalLoop=1;jettySize=auto;html=1;exitX=0;exitY=0.5;exitDx=0;exitDy=0;endArrow=none;endFill=0;entryX=0.5;entryY=1;entryDx=0;entryDy=0;" parent="1" source="UBR0x5_iBrmlrGrRdMYh-18" edge="1">
          <mxGeometry relative="1" as="geometry">
            <mxPoint x="-9.5" y="150" as="targetPoint" />
          </mxGeometry>
        </mxCell>
        <mxCell id="UBR0x5_iBrmlrGrRdMYh-18" value="Комментарий" style="ellipse;whiteSpace=wrap;html=1;" parent="1" vertex="1">
          <mxGeometry x="10.5" y="390" width="120" height="40" as="geometry" />
        </mxCell>
        <mxCell id="UBR0x5_iBrmlrGrRdMYh-19" value="Оценка" style="ellipse;whiteSpace=wrap;html=1;" parent="1" vertex="1">
          <mxGeometry x="9.5" y="330" width="120" height="40" as="geometry" />
        </mxCell>
        <mxCell id="UBR0x5_iBrmlrGrRdMYh-20" style="edgeStyle=orthogonalEdgeStyle;rounded=0;orthogonalLoop=1;jettySize=auto;html=1;exitX=0;exitY=0.5;exitDx=0;exitDy=0;endArrow=none;endFill=0;" parent="1" source="UBR0x5_iBrmlrGrRdMYh-21" edge="1">
          <mxGeometry relative="1" as="geometry">
            <mxPoint x="-10.5" y="250.27586206896558" as="targetPoint" />
          </mxGeometry>
        </mxCell>
        <mxCell id="UBR0x5_iBrmlrGrRdMYh-21" value="Id пользователя" style="ellipse;whiteSpace=wrap;html=1;" parent="1" vertex="1">
          <mxGeometry x="9.5" y="230" width="120" height="40" as="geometry" />
        </mxCell>
        <mxCell id="UBR0x5_iBrmlrGrRdMYh-22" value="id" style="ellipse;whiteSpace=wrap;html=1;" parent="1" vertex="1">
          <mxGeometry x="10.5" y="172.5" width="120" height="40" as="geometry" />
        </mxCell>
        <mxCell id="UBR0x5_iBrmlrGrRdMYh-23" value="Id фильма" style="ellipse;whiteSpace=wrap;html=1;" parent="1" vertex="1">
          <mxGeometry x="10.5" y="280" width="120" height="40" as="geometry" />
        </mxCell>
        <mxCell id="UBR0x5_iBrmlrGrRdMYh-24" style="edgeStyle=orthogonalEdgeStyle;rounded=0;orthogonalLoop=1;jettySize=auto;html=1;exitX=0;exitY=0.5;exitDx=0;exitDy=0;endArrow=none;endFill=0;" parent="1" edge="1">
          <mxGeometry relative="1" as="geometry">
            <mxPoint x="-9.5" y="299.7758620689656" as="targetPoint" />
            <mxPoint x="10.5" y="299.5" as="sourcePoint" />
          </mxGeometry>
        </mxCell>
        <mxCell id="UBR0x5_iBrmlrGrRdMYh-25" style="edgeStyle=orthogonalEdgeStyle;rounded=0;orthogonalLoop=1;jettySize=auto;html=1;exitX=0;exitY=0.5;exitDx=0;exitDy=0;endArrow=none;endFill=0;" parent="1" edge="1">
          <mxGeometry relative="1" as="geometry">
            <mxPoint x="-9.5" y="349.7758620689656" as="targetPoint" />
            <mxPoint x="10.5" y="349.5" as="sourcePoint" />
          </mxGeometry>
        </mxCell>
        <mxCell id="UBR0x5_iBrmlrGrRdMYh-26" style="edgeStyle=orthogonalEdgeStyle;rounded=0;orthogonalLoop=1;jettySize=auto;html=1;exitX=0;exitY=0.5;exitDx=0;exitDy=0;endArrow=none;endFill=0;" parent="1" edge="1">
          <mxGeometry relative="1" as="geometry">
            <mxPoint x="-8.5" y="192.27586206896558" as="targetPoint" />
            <mxPoint x="11.5" y="192" as="sourcePoint" />
          </mxGeometry>
        </mxCell>
        <mxCell id="UBR0x5_iBrmlrGrRdMYh-30" style="edgeStyle=orthogonalEdgeStyle;rounded=0;orthogonalLoop=1;jettySize=auto;html=1;exitX=1;exitY=0.5;exitDx=0;exitDy=0;entryX=0;entryY=0.5;entryDx=0;entryDy=0;endArrow=ERmany;startFill=0;endFill=0;" parent="1" source="UBR0x5_iBrmlrGrRdMYh-29" target="UBR0x5_iBrmlrGrRdMYh-4" edge="1">
          <mxGeometry relative="1" as="geometry" />
        </mxCell>
        <mxCell id="UBR0x5_iBrmlrGrRdMYh-31" style="edgeStyle=orthogonalEdgeStyle;rounded=0;orthogonalLoop=1;jettySize=auto;html=1;entryX=0.5;entryY=1;entryDx=0;entryDy=0;endArrow=ERmany;startFill=0;endFill=0;" parent="1" source="UBR0x5_iBrmlrGrRdMYh-29" target="xL5yXA5HZKOMHi_uFyqZ-91" edge="1">
          <mxGeometry relative="1" as="geometry" />
        </mxCell>
        <mxCell id="UBR0x5_iBrmlrGrRdMYh-29" value="Отзывы" style="rhombus;whiteSpace=wrap;html=1;" parent="1" vertex="1">
          <mxGeometry x="-54.5" y="103" width="90" height="55" as="geometry" />
        </mxCell>
        <mxCell id="UBR0x5_iBrmlrGrRdMYh-32" value="Статус (блокирован?)" style="ellipse;whiteSpace=wrap;html=1;" parent="1" vertex="1">
          <mxGeometry x="224.5" y="450" width="120" height="40" as="geometry" />
        </mxCell>
        <mxCell id="UBR0x5_iBrmlrGrRdMYh-34" value="" style="rounded=0;whiteSpace=wrap;html=1;" parent="1" vertex="1">
          <mxGeometry x="410" y="100" width="120" height="60" as="geometry" />
        </mxCell>
        <mxCell id="UBR0x5_iBrmlrGrRdMYh-37" style="edgeStyle=orthogonalEdgeStyle;rounded=0;orthogonalLoop=1;jettySize=auto;html=1;entryX=0;entryY=0.5;entryDx=0;entryDy=0;endArrow=none;startFill=0;" parent="1" source="UBR0x5_iBrmlrGrRdMYh-35" target="UBR0x5_iBrmlrGrRdMYh-36" edge="1">
          <mxGeometry relative="1" as="geometry" />
        </mxCell>
        <mxCell id="UBR0x5_iBrmlrGrRdMYh-35" value="&lt;span style=&quot;font-weight: 700&quot;&gt;Роль&lt;/span&gt;" style="rounded=0;whiteSpace=wrap;html=1;" parent="1" vertex="1">
          <mxGeometry x="425" y="105" width="90" height="50" as="geometry" />
        </mxCell>
        <mxCell id="UBR0x5_iBrmlrGrRdMYh-36" value="id" style="ellipse;whiteSpace=wrap;html=1;" parent="1" vertex="1">
          <mxGeometry x="490" y="180" width="120" height="40" as="geometry" />
        </mxCell>
        <mxCell id="UBR0x5_iBrmlrGrRdMYh-39" style="edgeStyle=orthogonalEdgeStyle;rounded=0;orthogonalLoop=1;jettySize=auto;html=1;exitX=0;exitY=0.5;exitDx=0;exitDy=0;entryX=0.5;entryY=1;entryDx=0;entryDy=0;endArrow=none;startFill=0;" parent="1" source="UBR0x5_iBrmlrGrRdMYh-38" target="UBR0x5_iBrmlrGrRdMYh-4" edge="1">
          <mxGeometry relative="1" as="geometry" />
        </mxCell>
        <mxCell id="UBR0x5_iBrmlrGrRdMYh-38" value="Id роли" style="ellipse;whiteSpace=wrap;html=1;" parent="1" vertex="1">
          <mxGeometry x="224.5" y="500" width="120" height="40" as="geometry" />
        </mxCell>
        <mxCell id="UBR0x5_iBrmlrGrRdMYh-41" style="edgeStyle=orthogonalEdgeStyle;rounded=0;orthogonalLoop=1;jettySize=auto;html=1;entryX=0.5;entryY=1;entryDx=0;entryDy=0;endArrow=none;startFill=0;" parent="1" source="UBR0x5_iBrmlrGrRdMYh-40" target="UBR0x5_iBrmlrGrRdMYh-35" edge="1">
          <mxGeometry relative="1" as="geometry">
            <Array as="points">
              <mxPoint x="470.5" y="260" />
            </Array>
          </mxGeometry>
        </mxCell>
        <mxCell id="UBR0x5_iBrmlrGrRdMYh-40" value="Название" style="ellipse;whiteSpace=wrap;html=1;" parent="1" vertex="1">
          <mxGeometry x="490" y="240" width="120" height="40" as="geometry" />
        </mxCell>
        <mxCell id="y8jEOTL4MjrVP4F1A8_s-2" style="edgeStyle=orthogonalEdgeStyle;rounded=0;orthogonalLoop=1;jettySize=auto;html=1;entryX=0;entryY=0.5;entryDx=0;entryDy=0;endArrow=none;startFill=0;" edge="1" parent="1" source="y8jEOTL4MjrVP4F1A8_s-3" target="y8jEOTL4MjrVP4F1A8_s-9">
          <mxGeometry relative="1" as="geometry" />
        </mxCell>
        <mxCell id="y8jEOTL4MjrVP4F1A8_s-3" value="&lt;b&gt;Кинозалы&lt;/b&gt;" style="rounded=0;whiteSpace=wrap;html=1;" vertex="1" parent="1">
          <mxGeometry x="2250" y="-95" width="120" height="60" as="geometry" />
        </mxCell>
        <mxCell id="y8jEOTL4MjrVP4F1A8_s-4" style="edgeStyle=orthogonalEdgeStyle;rounded=0;orthogonalLoop=1;jettySize=auto;html=1;exitX=0;exitY=0.5;exitDx=0;exitDy=0;endArrow=none;endFill=0;" edge="1" parent="1" source="y8jEOTL4MjrVP4F1A8_s-5">
          <mxGeometry relative="1" as="geometry">
            <mxPoint x="2310.5" y="-149.72413793103442" as="targetPoint" />
          </mxGeometry>
        </mxCell>
        <mxCell id="y8jEOTL4MjrVP4F1A8_s-5" value="Описание" style="ellipse;whiteSpace=wrap;html=1;" vertex="1" parent="1">
          <mxGeometry x="2330.5" y="-170" width="120" height="40" as="geometry" />
        </mxCell>
        <mxCell id="y8jEOTL4MjrVP4F1A8_s-6" value="Тип" style="ellipse;whiteSpace=wrap;html=1;" vertex="1" parent="1">
          <mxGeometry x="2329.5" y="-230" width="120" height="40" as="geometry" />
        </mxCell>
        <mxCell id="y8jEOTL4MjrVP4F1A8_s-7" style="edgeStyle=orthogonalEdgeStyle;rounded=0;orthogonalLoop=1;jettySize=auto;html=1;exitX=0;exitY=0.5;exitDx=0;exitDy=0;endArrow=none;endFill=0;" edge="1" parent="1" source="y8jEOTL4MjrVP4F1A8_s-8">
          <mxGeometry relative="1" as="geometry">
            <mxPoint x="2309.5" y="-309.7241379310344" as="targetPoint" />
          </mxGeometry>
        </mxCell>
        <mxCell id="y8jEOTL4MjrVP4F1A8_s-8" value="Название" style="ellipse;whiteSpace=wrap;html=1;" vertex="1" parent="1">
          <mxGeometry x="2329.5" y="-330" width="120" height="40" as="geometry" />
        </mxCell>
        <mxCell id="y8jEOTL4MjrVP4F1A8_s-9" value="id" style="ellipse;whiteSpace=wrap;html=1;" vertex="1" parent="1">
          <mxGeometry x="2330.5" y="-385" width="120" height="40" as="geometry" />
        </mxCell>
        <mxCell id="y8jEOTL4MjrVP4F1A8_s-10" value="Вместимость" style="ellipse;whiteSpace=wrap;html=1;" vertex="1" parent="1">
          <mxGeometry x="2330.5" y="-280" width="120" height="40" as="geometry" />
        </mxCell>
        <mxCell id="y8jEOTL4MjrVP4F1A8_s-11" style="edgeStyle=orthogonalEdgeStyle;rounded=0;orthogonalLoop=1;jettySize=auto;html=1;exitX=0;exitY=0.5;exitDx=0;exitDy=0;endArrow=none;endFill=0;" edge="1" parent="1">
          <mxGeometry relative="1" as="geometry">
            <mxPoint x="2310.5" y="-260.2241379310344" as="targetPoint" />
            <mxPoint x="2330.5" y="-260.5" as="sourcePoint" />
          </mxGeometry>
        </mxCell>
        <mxCell id="y8jEOTL4MjrVP4F1A8_s-12" style="edgeStyle=orthogonalEdgeStyle;rounded=0;orthogonalLoop=1;jettySize=auto;html=1;exitX=0;exitY=0.5;exitDx=0;exitDy=0;endArrow=none;endFill=0;" edge="1" parent="1">
          <mxGeometry relative="1" as="geometry">
            <mxPoint x="2310.5" y="-210.22413793103442" as="targetPoint" />
            <mxPoint x="2330.5" y="-210.5" as="sourcePoint" />
          </mxGeometry>
        </mxCell>
        <mxCell id="y8jEOTL4MjrVP4F1A8_s-13" style="edgeStyle=orthogonalEdgeStyle;rounded=0;orthogonalLoop=1;jettySize=auto;html=1;entryX=0;entryY=0.5;entryDx=0;entryDy=0;endArrow=none;startFill=0;" edge="1" parent="1" source="y8jEOTL4MjrVP4F1A8_s-14" target="y8jEOTL4MjrVP4F1A8_s-20">
          <mxGeometry relative="1" as="geometry" />
        </mxCell>
        <mxCell id="y8jEOTL4MjrVP4F1A8_s-14" value="&lt;b&gt;Фильмы&lt;/b&gt;" style="rounded=0;whiteSpace=wrap;html=1;" vertex="1" parent="1">
          <mxGeometry x="1530.5" y="-95" width="120" height="60" as="geometry" />
        </mxCell>
        <mxCell id="y8jEOTL4MjrVP4F1A8_s-15" style="edgeStyle=orthogonalEdgeStyle;rounded=0;orthogonalLoop=1;jettySize=auto;html=1;exitX=0;exitY=0.5;exitDx=0;exitDy=0;endArrow=none;endFill=0;" edge="1" parent="1" source="y8jEOTL4MjrVP4F1A8_s-16">
          <mxGeometry relative="1" as="geometry">
            <mxPoint x="1590" y="-314.7241379310344" as="targetPoint" />
          </mxGeometry>
        </mxCell>
        <mxCell id="y8jEOTL4MjrVP4F1A8_s-16" value="Описание" style="ellipse;whiteSpace=wrap;html=1;" vertex="1" parent="1">
          <mxGeometry x="1610" y="-335" width="120" height="40" as="geometry" />
        </mxCell>
        <mxCell id="y8jEOTL4MjrVP4F1A8_s-17" value="Рейтинг" style="ellipse;whiteSpace=wrap;html=1;" vertex="1" parent="1">
          <mxGeometry x="1609" y="-395" width="120" height="40" as="geometry" />
        </mxCell>
        <mxCell id="y8jEOTL4MjrVP4F1A8_s-18" style="edgeStyle=orthogonalEdgeStyle;rounded=0;orthogonalLoop=1;jettySize=auto;html=1;exitX=0;exitY=0.5;exitDx=0;exitDy=0;endArrow=none;endFill=0;" edge="1" parent="1" source="y8jEOTL4MjrVP4F1A8_s-19">
          <mxGeometry relative="1" as="geometry">
            <mxPoint x="1589" y="-474.7241379310344" as="targetPoint" />
          </mxGeometry>
        </mxCell>
        <mxCell id="y8jEOTL4MjrVP4F1A8_s-19" value="Название" style="ellipse;whiteSpace=wrap;html=1;" vertex="1" parent="1">
          <mxGeometry x="1609" y="-495" width="120" height="40" as="geometry" />
        </mxCell>
        <mxCell id="y8jEOTL4MjrVP4F1A8_s-20" value="id" style="ellipse;whiteSpace=wrap;html=1;" vertex="1" parent="1">
          <mxGeometry x="1610" y="-550" width="120" height="40" as="geometry" />
        </mxCell>
        <mxCell id="y8jEOTL4MjrVP4F1A8_s-21" value="Продолжительность" style="ellipse;whiteSpace=wrap;html=1;" vertex="1" parent="1">
          <mxGeometry x="1610" y="-445" width="120" height="40" as="geometry" />
        </mxCell>
        <mxCell id="y8jEOTL4MjrVP4F1A8_s-22" style="edgeStyle=orthogonalEdgeStyle;rounded=0;orthogonalLoop=1;jettySize=auto;html=1;exitX=0;exitY=0.5;exitDx=0;exitDy=0;endArrow=none;endFill=0;" edge="1" parent="1">
          <mxGeometry relative="1" as="geometry">
            <mxPoint x="1590" y="-425.2241379310344" as="targetPoint" />
            <mxPoint x="1610" y="-425.5" as="sourcePoint" />
          </mxGeometry>
        </mxCell>
        <mxCell id="y8jEOTL4MjrVP4F1A8_s-23" style="edgeStyle=orthogonalEdgeStyle;rounded=0;orthogonalLoop=1;jettySize=auto;html=1;exitX=0;exitY=0.5;exitDx=0;exitDy=0;endArrow=none;endFill=0;" edge="1" parent="1">
          <mxGeometry relative="1" as="geometry">
            <mxPoint x="1590" y="-375.2241379310344" as="targetPoint" />
            <mxPoint x="1610" y="-375.5" as="sourcePoint" />
          </mxGeometry>
        </mxCell>
        <mxCell id="y8jEOTL4MjrVP4F1A8_s-24" style="edgeStyle=orthogonalEdgeStyle;rounded=0;orthogonalLoop=1;jettySize=auto;html=1;exitX=0;exitY=0.5;exitDx=0;exitDy=0;endArrow=none;endFill=0;" edge="1" parent="1" source="y8jEOTL4MjrVP4F1A8_s-25">
          <mxGeometry relative="1" as="geometry">
            <mxPoint x="1589" y="-259.7241379310344" as="targetPoint" />
          </mxGeometry>
        </mxCell>
        <mxCell id="y8jEOTL4MjrVP4F1A8_s-25" value="Дата выхода" style="ellipse;whiteSpace=wrap;html=1;" vertex="1" parent="1">
          <mxGeometry x="1609" y="-280" width="120" height="40" as="geometry" />
        </mxCell>
        <mxCell id="y8jEOTL4MjrVP4F1A8_s-26" style="edgeStyle=orthogonalEdgeStyle;rounded=0;orthogonalLoop=1;jettySize=auto;html=1;exitX=0;exitY=0.5;exitDx=0;exitDy=0;endArrow=none;endFill=0;" edge="1" parent="1" source="y8jEOTL4MjrVP4F1A8_s-27">
          <mxGeometry relative="1" as="geometry">
            <mxPoint x="1589" y="-204.72413793103442" as="targetPoint" />
          </mxGeometry>
        </mxCell>
        <mxCell id="y8jEOTL4MjrVP4F1A8_s-27" value="Возрастное ограничение" style="ellipse;whiteSpace=wrap;html=1;" vertex="1" parent="1">
          <mxGeometry x="1609" y="-225" width="120" height="40" as="geometry" />
        </mxCell>
        <mxCell id="y8jEOTL4MjrVP4F1A8_s-28" style="edgeStyle=orthogonalEdgeStyle;rounded=0;orthogonalLoop=1;jettySize=auto;html=1;entryX=0;entryY=0.5;entryDx=0;entryDy=0;endArrow=ERmany;endFill=0;exitX=1;exitY=0.5;exitDx=0;exitDy=0;startArrow=none;startFill=0;" edge="1" parent="1" source="y8jEOTL4MjrVP4F1A8_s-54" target="y8jEOTL4MjrVP4F1A8_s-3">
          <mxGeometry relative="1" as="geometry">
            <mxPoint x="2121" y="-65.5" as="sourcePoint" />
          </mxGeometry>
        </mxCell>
        <mxCell id="y8jEOTL4MjrVP4F1A8_s-29" style="edgeStyle=orthogonalEdgeStyle;rounded=0;orthogonalLoop=1;jettySize=auto;html=1;exitX=0;exitY=0.5;exitDx=0;exitDy=0;entryX=1;entryY=0.5;entryDx=0;entryDy=0;endArrow=ERmany;endFill=0;startArrow=none;startFill=0;" edge="1" parent="1" source="y8jEOTL4MjrVP4F1A8_s-54" target="y8jEOTL4MjrVP4F1A8_s-14">
          <mxGeometry relative="1" as="geometry">
            <mxPoint x="1840" y="-65" as="sourcePoint" />
          </mxGeometry>
        </mxCell>
        <mxCell id="y8jEOTL4MjrVP4F1A8_s-30" style="edgeStyle=orthogonalEdgeStyle;rounded=0;orthogonalLoop=1;jettySize=auto;html=1;exitX=0;exitY=0.5;exitDx=0;exitDy=0;endArrow=none;endFill=0;" edge="1" parent="1" source="y8jEOTL4MjrVP4F1A8_s-31">
          <mxGeometry relative="1" as="geometry">
            <mxPoint x="2051" y="-305.2241379310344" as="targetPoint" />
          </mxGeometry>
        </mxCell>
        <mxCell id="y8jEOTL4MjrVP4F1A8_s-31" value="id кинозала" style="ellipse;whiteSpace=wrap;html=1;" vertex="1" parent="1">
          <mxGeometry x="2071" y="-325.5" width="120" height="40" as="geometry" />
        </mxCell>
        <mxCell id="y8jEOTL4MjrVP4F1A8_s-32" value="id фильма" style="ellipse;whiteSpace=wrap;html=1;" vertex="1" parent="1">
          <mxGeometry x="2071" y="-270.5" width="120" height="40" as="geometry" />
        </mxCell>
        <mxCell id="y8jEOTL4MjrVP4F1A8_s-33" style="edgeStyle=orthogonalEdgeStyle;rounded=0;orthogonalLoop=1;jettySize=auto;html=1;entryX=0;entryY=0.5;entryDx=0;entryDy=0;endArrow=none;startFill=0;" edge="1" parent="1" source="y8jEOTL4MjrVP4F1A8_s-34" target="y8jEOTL4MjrVP4F1A8_s-37">
          <mxGeometry relative="1" as="geometry" />
        </mxCell>
        <mxCell id="y8jEOTL4MjrVP4F1A8_s-34" value="&lt;b&gt;Жанры&lt;/b&gt;" style="rounded=0;whiteSpace=wrap;html=1;" vertex="1" parent="1">
          <mxGeometry x="1120" y="-95" width="120" height="60" as="geometry" />
        </mxCell>
        <mxCell id="y8jEOTL4MjrVP4F1A8_s-35" style="edgeStyle=orthogonalEdgeStyle;rounded=0;orthogonalLoop=1;jettySize=auto;html=1;exitX=0;exitY=0.5;exitDx=0;exitDy=0;endArrow=none;endFill=0;" edge="1" parent="1" source="y8jEOTL4MjrVP4F1A8_s-36">
          <mxGeometry relative="1" as="geometry">
            <mxPoint x="1180" y="-129.72413793103442" as="targetPoint" />
          </mxGeometry>
        </mxCell>
        <mxCell id="y8jEOTL4MjrVP4F1A8_s-36" value="Название" style="ellipse;whiteSpace=wrap;html=1;" vertex="1" parent="1">
          <mxGeometry x="1200" y="-150" width="120" height="40" as="geometry" />
        </mxCell>
        <mxCell id="y8jEOTL4MjrVP4F1A8_s-37" value="id" style="ellipse;whiteSpace=wrap;html=1;" vertex="1" parent="1">
          <mxGeometry x="1201" y="-205" width="120" height="40" as="geometry" />
        </mxCell>
        <mxCell id="y8jEOTL4MjrVP4F1A8_s-38" style="edgeStyle=orthogonalEdgeStyle;rounded=0;orthogonalLoop=1;jettySize=auto;html=1;entryX=0;entryY=0.5;entryDx=0;entryDy=0;endArrow=ERmany;endFill=0;" edge="1" parent="1" source="y8jEOTL4MjrVP4F1A8_s-41">
          <mxGeometry relative="1" as="geometry">
            <mxPoint x="1531" y="-65" as="targetPoint" />
          </mxGeometry>
        </mxCell>
        <mxCell id="y8jEOTL4MjrVP4F1A8_s-39" style="edgeStyle=orthogonalEdgeStyle;rounded=0;orthogonalLoop=1;jettySize=auto;html=1;exitX=0;exitY=0.5;exitDx=0;exitDy=0;entryX=1;entryY=0.5;entryDx=0;entryDy=0;endArrow=ERmany;endFill=0;" edge="1" parent="1" target="y8jEOTL4MjrVP4F1A8_s-34">
          <mxGeometry relative="1" as="geometry">
            <mxPoint x="1340.5" y="-65" as="sourcePoint" />
          </mxGeometry>
        </mxCell>
        <mxCell id="y8jEOTL4MjrVP4F1A8_s-40" style="edgeStyle=orthogonalEdgeStyle;rounded=0;orthogonalLoop=1;jettySize=auto;html=1;entryX=0;entryY=0.5;entryDx=0;entryDy=0;endArrow=none;startFill=0;" edge="1" parent="1" source="y8jEOTL4MjrVP4F1A8_s-41" target="y8jEOTL4MjrVP4F1A8_s-44">
          <mxGeometry relative="1" as="geometry" />
        </mxCell>
        <mxCell id="y8jEOTL4MjrVP4F1A8_s-41" value="Относится" style="rhombus;whiteSpace=wrap;html=1;" vertex="1" parent="1">
          <mxGeometry x="1330" y="-92.5" width="90" height="55" as="geometry" />
        </mxCell>
        <mxCell id="y8jEOTL4MjrVP4F1A8_s-42" style="edgeStyle=orthogonalEdgeStyle;rounded=0;orthogonalLoop=1;jettySize=auto;html=1;exitX=0;exitY=0.5;exitDx=0;exitDy=0;endArrow=none;endFill=0;" edge="1" parent="1">
          <mxGeometry relative="1" as="geometry">
            <mxPoint x="1375" y="-5.22413793103442" as="targetPoint" />
            <mxPoint x="1395" y="-5.5" as="sourcePoint" />
          </mxGeometry>
        </mxCell>
        <mxCell id="y8jEOTL4MjrVP4F1A8_s-43" value="id жанра" style="ellipse;whiteSpace=wrap;html=1;" vertex="1" parent="1">
          <mxGeometry x="1395" y="-25" width="120" height="40" as="geometry" />
        </mxCell>
        <mxCell id="y8jEOTL4MjrVP4F1A8_s-44" value="id фильма" style="ellipse;whiteSpace=wrap;html=1;" vertex="1" parent="1">
          <mxGeometry x="1395" y="25" width="120" height="40" as="geometry" />
        </mxCell>
        <mxCell id="y8jEOTL4MjrVP4F1A8_s-45" value="Общие кассовые сборы" style="ellipse;whiteSpace=wrap;html=1;" vertex="1" parent="1">
          <mxGeometry x="1610" y="-170" width="120" height="40" as="geometry" />
        </mxCell>
        <mxCell id="y8jEOTL4MjrVP4F1A8_s-46" style="edgeStyle=orthogonalEdgeStyle;rounded=0;orthogonalLoop=1;jettySize=auto;html=1;exitX=0;exitY=0.5;exitDx=0;exitDy=0;endArrow=none;endFill=0;" edge="1" parent="1">
          <mxGeometry relative="1" as="geometry">
            <mxPoint x="1589.5" y="-149.72413793103442" as="targetPoint" />
            <mxPoint x="1610" y="-150" as="sourcePoint" />
          </mxGeometry>
        </mxCell>
        <mxCell id="y8jEOTL4MjrVP4F1A8_s-47" value="Время начала&lt;br&gt;сеанса" style="ellipse;whiteSpace=wrap;html=1;" vertex="1" parent="1">
          <mxGeometry x="2071" y="-220.5" width="120" height="40" as="geometry" />
        </mxCell>
        <mxCell id="y8jEOTL4MjrVP4F1A8_s-48" value="id" style="ellipse;whiteSpace=wrap;html=1;" vertex="1" parent="1">
          <mxGeometry x="2071" y="-375.5" width="120" height="40" as="geometry" />
        </mxCell>
        <mxCell id="y8jEOTL4MjrVP4F1A8_s-49" style="edgeStyle=orthogonalEdgeStyle;rounded=0;orthogonalLoop=1;jettySize=auto;html=1;exitX=0;exitY=0.5;exitDx=0;exitDy=0;endArrow=none;endFill=0;" edge="1" parent="1">
          <mxGeometry relative="1" as="geometry">
            <mxPoint x="2051" y="-250.72413793103442" as="targetPoint" />
            <mxPoint x="2071" y="-251" as="sourcePoint" />
          </mxGeometry>
        </mxCell>
        <mxCell id="y8jEOTL4MjrVP4F1A8_s-50" style="edgeStyle=orthogonalEdgeStyle;rounded=0;orthogonalLoop=1;jettySize=auto;html=1;exitX=0;exitY=0.5;exitDx=0;exitDy=0;endArrow=none;endFill=0;" edge="1" parent="1">
          <mxGeometry relative="1" as="geometry">
            <mxPoint x="2051" y="-200.72413793103442" as="targetPoint" />
            <mxPoint x="2071" y="-201" as="sourcePoint" />
          </mxGeometry>
        </mxCell>
        <mxCell id="y8jEOTL4MjrVP4F1A8_s-51" value="Язык показа" style="ellipse;whiteSpace=wrap;html=1;" vertex="1" parent="1">
          <mxGeometry x="2071" y="-160.5" width="120" height="40" as="geometry" />
        </mxCell>
        <mxCell id="y8jEOTL4MjrVP4F1A8_s-52" style="edgeStyle=orthogonalEdgeStyle;rounded=0;orthogonalLoop=1;jettySize=auto;html=1;exitX=0;exitY=0.5;exitDx=0;exitDy=0;endArrow=none;endFill=0;" edge="1" parent="1">
          <mxGeometry relative="1" as="geometry">
            <mxPoint x="2051" y="-140.72413793103442" as="targetPoint" />
            <mxPoint x="2071" y="-141" as="sourcePoint" />
          </mxGeometry>
        </mxCell>
        <mxCell id="y8jEOTL4MjrVP4F1A8_s-53" style="edgeStyle=orthogonalEdgeStyle;rounded=0;orthogonalLoop=1;jettySize=auto;html=1;entryX=0;entryY=0.5;entryDx=0;entryDy=0;endArrow=none;startFill=0;" edge="1" parent="1" source="y8jEOTL4MjrVP4F1A8_s-54" target="y8jEOTL4MjrVP4F1A8_s-48">
          <mxGeometry relative="1" as="geometry" />
        </mxCell>
        <mxCell id="y8jEOTL4MjrVP4F1A8_s-54" value="Сеансы" style="rhombus;whiteSpace=wrap;html=1;" vertex="1" parent="1">
          <mxGeometry x="2006" y="-92.5" width="90" height="55" as="geometry" />
        </mxCell>
        <mxCell id="y8jEOTL4MjrVP4F1A8_s-55" style="edgeStyle=orthogonalEdgeStyle;rounded=0;orthogonalLoop=1;jettySize=auto;html=1;entryX=0;entryY=0.5;entryDx=0;entryDy=0;endArrow=none;startFill=0;" edge="1" parent="1" source="y8jEOTL4MjrVP4F1A8_s-57" target="y8jEOTL4MjrVP4F1A8_s-63">
          <mxGeometry relative="1" as="geometry" />
        </mxCell>
        <mxCell id="y8jEOTL4MjrVP4F1A8_s-56" style="edgeStyle=orthogonalEdgeStyle;rounded=0;orthogonalLoop=1;jettySize=auto;html=1;entryX=0.5;entryY=1;entryDx=0;entryDy=0;endArrow=none;endFill=0;startFill=0;startArrow=ERmany;" edge="1" parent="1" source="y8jEOTL4MjrVP4F1A8_s-57" target="y8jEOTL4MjrVP4F1A8_s-54">
          <mxGeometry relative="1" as="geometry" />
        </mxCell>
        <mxCell id="y8jEOTL4MjrVP4F1A8_s-57" value="&lt;b&gt;Билеты&lt;/b&gt;" style="rounded=0;whiteSpace=wrap;html=1;" vertex="1" parent="1">
          <mxGeometry x="2250" y="-15" width="120" height="60" as="geometry" />
        </mxCell>
        <mxCell id="y8jEOTL4MjrVP4F1A8_s-58" style="edgeStyle=orthogonalEdgeStyle;rounded=0;orthogonalLoop=1;jettySize=auto;html=1;exitX=0;exitY=0.5;exitDx=0;exitDy=0;endArrow=none;endFill=0;entryX=0.5;entryY=1;entryDx=0;entryDy=0;" edge="1" parent="1" source="y8jEOTL4MjrVP4F1A8_s-59" target="y8jEOTL4MjrVP4F1A8_s-57">
          <mxGeometry relative="1" as="geometry">
            <mxPoint x="2310" y="305.2758620689656" as="targetPoint" />
          </mxGeometry>
        </mxCell>
        <mxCell id="y8jEOTL4MjrVP4F1A8_s-59" value="Статус бронирования" style="ellipse;whiteSpace=wrap;html=1;" vertex="1" parent="1">
          <mxGeometry x="2330" y="285" width="120" height="40" as="geometry" />
        </mxCell>
        <mxCell id="y8jEOTL4MjrVP4F1A8_s-60" value="Тип" style="ellipse;whiteSpace=wrap;html=1;" vertex="1" parent="1">
          <mxGeometry x="2329" y="225" width="120" height="40" as="geometry" />
        </mxCell>
        <mxCell id="y8jEOTL4MjrVP4F1A8_s-61" style="edgeStyle=orthogonalEdgeStyle;rounded=0;orthogonalLoop=1;jettySize=auto;html=1;exitX=0;exitY=0.5;exitDx=0;exitDy=0;endArrow=none;endFill=0;" edge="1" parent="1" source="y8jEOTL4MjrVP4F1A8_s-62">
          <mxGeometry relative="1" as="geometry">
            <mxPoint x="2309" y="145.27586206896558" as="targetPoint" />
          </mxGeometry>
        </mxCell>
        <mxCell id="y8jEOTL4MjrVP4F1A8_s-62" value="Номер места" style="ellipse;whiteSpace=wrap;html=1;" vertex="1" parent="1">
          <mxGeometry x="2329" y="125" width="120" height="40" as="geometry" />
        </mxCell>
        <mxCell id="y8jEOTL4MjrVP4F1A8_s-63" value="id" style="ellipse;whiteSpace=wrap;html=1;" vertex="1" parent="1">
          <mxGeometry x="2330" y="67.5" width="120" height="40" as="geometry" />
        </mxCell>
        <mxCell id="y8jEOTL4MjrVP4F1A8_s-64" value="Цена" style="ellipse;whiteSpace=wrap;html=1;" vertex="1" parent="1">
          <mxGeometry x="2330" y="175" width="120" height="40" as="geometry" />
        </mxCell>
        <mxCell id="y8jEOTL4MjrVP4F1A8_s-65" style="edgeStyle=orthogonalEdgeStyle;rounded=0;orthogonalLoop=1;jettySize=auto;html=1;exitX=0;exitY=0.5;exitDx=0;exitDy=0;endArrow=none;endFill=0;" edge="1" parent="1">
          <mxGeometry relative="1" as="geometry">
            <mxPoint x="2310" y="194.77586206896558" as="targetPoint" />
            <mxPoint x="2330" y="194.5" as="sourcePoint" />
          </mxGeometry>
        </mxCell>
        <mxCell id="y8jEOTL4MjrVP4F1A8_s-66" style="edgeStyle=orthogonalEdgeStyle;rounded=0;orthogonalLoop=1;jettySize=auto;html=1;exitX=0;exitY=0.5;exitDx=0;exitDy=0;endArrow=none;endFill=0;" edge="1" parent="1">
          <mxGeometry relative="1" as="geometry">
            <mxPoint x="2310" y="244.77586206896558" as="targetPoint" />
            <mxPoint x="2330" y="244.5" as="sourcePoint" />
          </mxGeometry>
        </mxCell>
        <mxCell id="y8jEOTL4MjrVP4F1A8_s-67" style="edgeStyle=orthogonalEdgeStyle;rounded=0;orthogonalLoop=1;jettySize=auto;html=1;entryX=0;entryY=0.5;entryDx=0;entryDy=0;endArrow=none;startFill=0;" edge="1" parent="1" source="y8jEOTL4MjrVP4F1A8_s-69" target="y8jEOTL4MjrVP4F1A8_s-93">
          <mxGeometry relative="1" as="geometry" />
        </mxCell>
        <mxCell id="y8jEOTL4MjrVP4F1A8_s-68" style="edgeStyle=orthogonalEdgeStyle;rounded=0;orthogonalLoop=1;jettySize=auto;html=1;endArrow=none;startFill=0;" edge="1" parent="1" source="y8jEOTL4MjrVP4F1A8_s-69" target="y8jEOTL4MjrVP4F1A8_s-94">
          <mxGeometry relative="1" as="geometry" />
        </mxCell>
        <mxCell id="y8jEOTL4MjrVP4F1A8_s-69" value="&lt;b&gt;Пользователи&lt;/b&gt;" style="rounded=0;whiteSpace=wrap;html=1;" vertex="1" parent="1">
          <mxGeometry x="1745.5" y="75" width="120" height="60" as="geometry" />
        </mxCell>
        <mxCell id="y8jEOTL4MjrVP4F1A8_s-70" style="edgeStyle=orthogonalEdgeStyle;rounded=0;orthogonalLoop=1;jettySize=auto;html=1;exitX=0;exitY=0.5;exitDx=0;exitDy=0;endArrow=none;endFill=0;" edge="1" parent="1" source="y8jEOTL4MjrVP4F1A8_s-71">
          <mxGeometry relative="1" as="geometry">
            <mxPoint x="1806" y="135" as="targetPoint" />
          </mxGeometry>
        </mxCell>
        <mxCell id="y8jEOTL4MjrVP4F1A8_s-71" value="Год рождения" style="ellipse;whiteSpace=wrap;html=1;" vertex="1" parent="1">
          <mxGeometry x="1825.5" y="365" width="120" height="40" as="geometry" />
        </mxCell>
        <mxCell id="y8jEOTL4MjrVP4F1A8_s-72" value="Пароль" style="ellipse;whiteSpace=wrap;html=1;" vertex="1" parent="1">
          <mxGeometry x="1824.5" y="305" width="120" height="40" as="geometry" />
        </mxCell>
        <mxCell id="y8jEOTL4MjrVP4F1A8_s-73" style="edgeStyle=orthogonalEdgeStyle;rounded=0;orthogonalLoop=1;jettySize=auto;html=1;exitX=0;exitY=0.5;exitDx=0;exitDy=0;endArrow=none;endFill=0;" edge="1" parent="1" source="y8jEOTL4MjrVP4F1A8_s-74">
          <mxGeometry relative="1" as="geometry">
            <mxPoint x="1804.5" y="225.27586206896558" as="targetPoint" />
          </mxGeometry>
        </mxCell>
        <mxCell id="y8jEOTL4MjrVP4F1A8_s-74" value="Имя" style="ellipse;whiteSpace=wrap;html=1;" vertex="1" parent="1">
          <mxGeometry x="1824.5" y="205" width="120" height="40" as="geometry" />
        </mxCell>
        <mxCell id="y8jEOTL4MjrVP4F1A8_s-75" value="id" style="ellipse;whiteSpace=wrap;html=1;" vertex="1" parent="1">
          <mxGeometry x="1825.5" y="147.5" width="120" height="40" as="geometry" />
        </mxCell>
        <mxCell id="y8jEOTL4MjrVP4F1A8_s-76" value="Почта" style="ellipse;whiteSpace=wrap;html=1;" vertex="1" parent="1">
          <mxGeometry x="1825.5" y="255" width="120" height="40" as="geometry" />
        </mxCell>
        <mxCell id="y8jEOTL4MjrVP4F1A8_s-77" style="edgeStyle=orthogonalEdgeStyle;rounded=0;orthogonalLoop=1;jettySize=auto;html=1;exitX=0;exitY=0.5;exitDx=0;exitDy=0;endArrow=none;endFill=0;" edge="1" parent="1">
          <mxGeometry relative="1" as="geometry">
            <mxPoint x="1805.5" y="274.7758620689656" as="targetPoint" />
            <mxPoint x="1825.5" y="274.5" as="sourcePoint" />
          </mxGeometry>
        </mxCell>
        <mxCell id="y8jEOTL4MjrVP4F1A8_s-78" style="edgeStyle=orthogonalEdgeStyle;rounded=0;orthogonalLoop=1;jettySize=auto;html=1;exitX=0;exitY=0.5;exitDx=0;exitDy=0;endArrow=none;endFill=0;" edge="1" parent="1">
          <mxGeometry relative="1" as="geometry">
            <mxPoint x="1805.5" y="324.7758620689656" as="targetPoint" />
            <mxPoint x="1825.5" y="324.5" as="sourcePoint" />
          </mxGeometry>
        </mxCell>
        <mxCell id="y8jEOTL4MjrVP4F1A8_s-79" style="edgeStyle=orthogonalEdgeStyle;rounded=0;orthogonalLoop=1;jettySize=auto;html=1;exitX=0;exitY=0.5;exitDx=0;exitDy=0;endArrow=none;endFill=0;" edge="1" parent="1">
          <mxGeometry relative="1" as="geometry">
            <mxPoint x="1806.5" y="167.27586206896558" as="targetPoint" />
            <mxPoint x="1826.5" y="167" as="sourcePoint" />
          </mxGeometry>
        </mxCell>
        <mxCell id="y8jEOTL4MjrVP4F1A8_s-80" style="edgeStyle=orthogonalEdgeStyle;rounded=0;orthogonalLoop=1;jettySize=auto;html=1;exitX=0;exitY=0.5;exitDx=0;exitDy=0;endArrow=none;endFill=0;entryX=0.5;entryY=1;entryDx=0;entryDy=0;" edge="1" parent="1" source="y8jEOTL4MjrVP4F1A8_s-81">
          <mxGeometry relative="1" as="geometry">
            <mxPoint x="1590.5" y="125" as="targetPoint" />
          </mxGeometry>
        </mxCell>
        <mxCell id="y8jEOTL4MjrVP4F1A8_s-81" value="Комментарий" style="ellipse;whiteSpace=wrap;html=1;" vertex="1" parent="1">
          <mxGeometry x="1610.5" y="365" width="120" height="40" as="geometry" />
        </mxCell>
        <mxCell id="y8jEOTL4MjrVP4F1A8_s-82" value="Оценка" style="ellipse;whiteSpace=wrap;html=1;" vertex="1" parent="1">
          <mxGeometry x="1609.5" y="305" width="120" height="40" as="geometry" />
        </mxCell>
        <mxCell id="y8jEOTL4MjrVP4F1A8_s-83" style="edgeStyle=orthogonalEdgeStyle;rounded=0;orthogonalLoop=1;jettySize=auto;html=1;exitX=0;exitY=0.5;exitDx=0;exitDy=0;endArrow=none;endFill=0;" edge="1" parent="1" source="y8jEOTL4MjrVP4F1A8_s-84">
          <mxGeometry relative="1" as="geometry">
            <mxPoint x="1589.5" y="225.27586206896558" as="targetPoint" />
          </mxGeometry>
        </mxCell>
        <mxCell id="y8jEOTL4MjrVP4F1A8_s-84" value="Id пользователя" style="ellipse;whiteSpace=wrap;html=1;" vertex="1" parent="1">
          <mxGeometry x="1609.5" y="205" width="120" height="40" as="geometry" />
        </mxCell>
        <mxCell id="y8jEOTL4MjrVP4F1A8_s-85" value="id" style="ellipse;whiteSpace=wrap;html=1;" vertex="1" parent="1">
          <mxGeometry x="1610.5" y="147.5" width="120" height="40" as="geometry" />
        </mxCell>
        <mxCell id="y8jEOTL4MjrVP4F1A8_s-86" value="Id фильма" style="ellipse;whiteSpace=wrap;html=1;" vertex="1" parent="1">
          <mxGeometry x="1610.5" y="255" width="120" height="40" as="geometry" />
        </mxCell>
        <mxCell id="y8jEOTL4MjrVP4F1A8_s-87" style="edgeStyle=orthogonalEdgeStyle;rounded=0;orthogonalLoop=1;jettySize=auto;html=1;exitX=0;exitY=0.5;exitDx=0;exitDy=0;endArrow=none;endFill=0;" edge="1" parent="1">
          <mxGeometry relative="1" as="geometry">
            <mxPoint x="1590.5" y="274.7758620689656" as="targetPoint" />
            <mxPoint x="1610.5" y="274.5" as="sourcePoint" />
          </mxGeometry>
        </mxCell>
        <mxCell id="y8jEOTL4MjrVP4F1A8_s-88" style="edgeStyle=orthogonalEdgeStyle;rounded=0;orthogonalLoop=1;jettySize=auto;html=1;exitX=0;exitY=0.5;exitDx=0;exitDy=0;endArrow=none;endFill=0;" edge="1" parent="1">
          <mxGeometry relative="1" as="geometry">
            <mxPoint x="1590.5" y="324.7758620689656" as="targetPoint" />
            <mxPoint x="1610.5" y="324.5" as="sourcePoint" />
          </mxGeometry>
        </mxCell>
        <mxCell id="y8jEOTL4MjrVP4F1A8_s-89" style="edgeStyle=orthogonalEdgeStyle;rounded=0;orthogonalLoop=1;jettySize=auto;html=1;exitX=0;exitY=0.5;exitDx=0;exitDy=0;endArrow=none;endFill=0;" edge="1" parent="1">
          <mxGeometry relative="1" as="geometry">
            <mxPoint x="1591.5" y="167.27586206896558" as="targetPoint" />
            <mxPoint x="1611.5" y="167" as="sourcePoint" />
          </mxGeometry>
        </mxCell>
        <mxCell id="y8jEOTL4MjrVP4F1A8_s-90" style="edgeStyle=orthogonalEdgeStyle;rounded=0;orthogonalLoop=1;jettySize=auto;html=1;exitX=1;exitY=0.5;exitDx=0;exitDy=0;entryX=0;entryY=0.5;entryDx=0;entryDy=0;endArrow=ERmany;startFill=0;endFill=0;" edge="1" parent="1" source="y8jEOTL4MjrVP4F1A8_s-92" target="y8jEOTL4MjrVP4F1A8_s-69">
          <mxGeometry relative="1" as="geometry" />
        </mxCell>
        <mxCell id="y8jEOTL4MjrVP4F1A8_s-91" style="edgeStyle=orthogonalEdgeStyle;rounded=0;orthogonalLoop=1;jettySize=auto;html=1;entryX=0.5;entryY=1;entryDx=0;entryDy=0;endArrow=ERmany;startFill=0;endFill=0;" edge="1" parent="1" source="y8jEOTL4MjrVP4F1A8_s-92" target="y8jEOTL4MjrVP4F1A8_s-14">
          <mxGeometry relative="1" as="geometry" />
        </mxCell>
        <mxCell id="y8jEOTL4MjrVP4F1A8_s-92" value="Отзывы" style="rhombus;whiteSpace=wrap;html=1;" vertex="1" parent="1">
          <mxGeometry x="1545.5" y="78" width="90" height="55" as="geometry" />
        </mxCell>
        <mxCell id="y8jEOTL4MjrVP4F1A8_s-93" value="Статус (блокирован?)" style="ellipse;whiteSpace=wrap;html=1;" vertex="1" parent="1">
          <mxGeometry x="1824.5" y="425" width="120" height="40" as="geometry" />
        </mxCell>
        <mxCell id="y8jEOTL4MjrVP4F1A8_s-94" value="" style="rounded=0;whiteSpace=wrap;html=1;" vertex="1" parent="1">
          <mxGeometry x="2010" y="75" width="120" height="60" as="geometry" />
        </mxCell>
        <mxCell id="y8jEOTL4MjrVP4F1A8_s-95" style="edgeStyle=orthogonalEdgeStyle;rounded=0;orthogonalLoop=1;jettySize=auto;html=1;entryX=0;entryY=0.5;entryDx=0;entryDy=0;endArrow=none;startFill=0;" edge="1" parent="1" source="y8jEOTL4MjrVP4F1A8_s-96" target="y8jEOTL4MjrVP4F1A8_s-97">
          <mxGeometry relative="1" as="geometry" />
        </mxCell>
        <mxCell id="y8jEOTL4MjrVP4F1A8_s-96" value="&lt;span style=&quot;font-weight: 700&quot;&gt;Роль&lt;/span&gt;" style="rounded=0;whiteSpace=wrap;html=1;" vertex="1" parent="1">
          <mxGeometry x="2025" y="80" width="90" height="50" as="geometry" />
        </mxCell>
        <mxCell id="y8jEOTL4MjrVP4F1A8_s-97" value="id" style="ellipse;whiteSpace=wrap;html=1;" vertex="1" parent="1">
          <mxGeometry x="2090" y="155" width="120" height="40" as="geometry" />
        </mxCell>
        <mxCell id="y8jEOTL4MjrVP4F1A8_s-98" style="edgeStyle=orthogonalEdgeStyle;rounded=0;orthogonalLoop=1;jettySize=auto;html=1;exitX=0;exitY=0.5;exitDx=0;exitDy=0;entryX=0.5;entryY=1;entryDx=0;entryDy=0;endArrow=none;startFill=0;" edge="1" parent="1" source="y8jEOTL4MjrVP4F1A8_s-99" target="y8jEOTL4MjrVP4F1A8_s-69">
          <mxGeometry relative="1" as="geometry" />
        </mxCell>
        <mxCell id="y8jEOTL4MjrVP4F1A8_s-99" value="Id роли" style="ellipse;whiteSpace=wrap;html=1;" vertex="1" parent="1">
          <mxGeometry x="1824.5" y="475" width="120" height="40" as="geometry" />
        </mxCell>
        <mxCell id="y8jEOTL4MjrVP4F1A8_s-100" style="edgeStyle=orthogonalEdgeStyle;rounded=0;orthogonalLoop=1;jettySize=auto;html=1;entryX=0.5;entryY=1;entryDx=0;entryDy=0;endArrow=none;startFill=0;" edge="1" parent="1" source="y8jEOTL4MjrVP4F1A8_s-101" target="y8jEOTL4MjrVP4F1A8_s-96">
          <mxGeometry relative="1" as="geometry">
            <Array as="points">
              <mxPoint x="2070.5" y="235" />
            </Array>
          </mxGeometry>
        </mxCell>
        <mxCell id="y8jEOTL4MjrVP4F1A8_s-101" value="Название" style="ellipse;whiteSpace=wrap;html=1;" vertex="1" parent="1">
          <mxGeometry x="2090" y="215" width="120" height="40" as="geometry" />
        </mxCell>
        <mxCell id="y8jEOTL4MjrVP4F1A8_s-103" value="Роль через бд?&lt;br&gt;Сравниваемые решения?&lt;br&gt;Добавление места, типа зала, скидки?&lt;br&gt;Cущность или связь?&lt;br&gt;Можно ли использовать Go, ORM?&lt;br&gt;Диплом" style="text;html=1;align=center;verticalAlign=middle;whiteSpace=wrap;rounded=0;" vertex="1" parent="1">
          <mxGeometry x="2620" y="-320" width="250" height="265" as="geometry" />
        </mxCell>
        <mxCell id="y8jEOTL4MjrVP4F1A8_s-105" style="edgeStyle=orthogonalEdgeStyle;rounded=0;orthogonalLoop=1;jettySize=auto;html=1;entryX=0;entryY=0.5;entryDx=0;entryDy=0;endArrow=none;startFill=0;" edge="1" parent="1" source="y8jEOTL4MjrVP4F1A8_s-106" target="y8jEOTL4MjrVP4F1A8_s-112">
          <mxGeometry relative="1" as="geometry" />
        </mxCell>
        <mxCell id="y8jEOTL4MjrVP4F1A8_s-221" style="edgeStyle=orthogonalEdgeStyle;rounded=0;orthogonalLoop=1;jettySize=auto;html=1;entryX=0;entryY=0.5;entryDx=0;entryDy=0;endArrow=none;startFill=0;" edge="1" parent="1" source="y8jEOTL4MjrVP4F1A8_s-106" target="y8jEOTL4MjrVP4F1A8_s-111">
          <mxGeometry relative="1" as="geometry" />
        </mxCell>
        <mxCell id="y8jEOTL4MjrVP4F1A8_s-222" style="edgeStyle=orthogonalEdgeStyle;rounded=0;orthogonalLoop=1;jettySize=auto;html=1;entryX=0;entryY=0.5;entryDx=0;entryDy=0;endArrow=none;startFill=0;" edge="1" parent="1" source="y8jEOTL4MjrVP4F1A8_s-106" target="y8jEOTL4MjrVP4F1A8_s-108">
          <mxGeometry relative="1" as="geometry" />
        </mxCell>
        <mxCell id="y8jEOTL4MjrVP4F1A8_s-223" style="edgeStyle=orthogonalEdgeStyle;rounded=0;orthogonalLoop=1;jettySize=auto;html=1;entryX=1;entryY=0.5;entryDx=0;entryDy=0;endArrow=none;startFill=0;" edge="1" parent="1" source="y8jEOTL4MjrVP4F1A8_s-106" target="y8jEOTL4MjrVP4F1A8_s-113">
          <mxGeometry relative="1" as="geometry" />
        </mxCell>
        <mxCell id="y8jEOTL4MjrVP4F1A8_s-224" style="edgeStyle=orthogonalEdgeStyle;rounded=0;orthogonalLoop=1;jettySize=auto;html=1;entryX=1;entryY=0.5;entryDx=0;entryDy=0;endArrow=none;startFill=0;" edge="1" parent="1" source="y8jEOTL4MjrVP4F1A8_s-106" target="y8jEOTL4MjrVP4F1A8_s-109">
          <mxGeometry relative="1" as="geometry" />
        </mxCell>
        <mxCell id="y8jEOTL4MjrVP4F1A8_s-106" value="&lt;b&gt;Кинозалы&lt;/b&gt;" style="rounded=0;whiteSpace=wrap;html=1;" vertex="1" parent="1">
          <mxGeometry x="738.5" y="1121" width="120" height="60" as="geometry" />
        </mxCell>
        <mxCell id="y8jEOTL4MjrVP4F1A8_s-108" value="Описание" style="ellipse;whiteSpace=wrap;html=1;" vertex="1" parent="1">
          <mxGeometry x="830.75" y="1058.5" width="120" height="40" as="geometry" />
        </mxCell>
        <mxCell id="y8jEOTL4MjrVP4F1A8_s-109" value="id типа оборудования" style="ellipse;whiteSpace=wrap;html=1;" vertex="1" parent="1">
          <mxGeometry x="650" y="1028.5" width="120" height="40" as="geometry" />
        </mxCell>
        <mxCell id="y8jEOTL4MjrVP4F1A8_s-111" value="Название" style="ellipse;whiteSpace=wrap;html=1;" vertex="1" parent="1">
          <mxGeometry x="830.75" y="988.5" width="120" height="40" as="geometry" />
        </mxCell>
        <mxCell id="y8jEOTL4MjrVP4F1A8_s-112" value="id" style="ellipse;whiteSpace=wrap;html=1;" vertex="1" parent="1">
          <mxGeometry x="830.75" y="918.5" width="120" height="40" as="geometry" />
        </mxCell>
        <mxCell id="y8jEOTL4MjrVP4F1A8_s-113" value="Вместимость" style="ellipse;whiteSpace=wrap;html=1;" vertex="1" parent="1">
          <mxGeometry x="650" y="958.5" width="120" height="40" as="geometry" />
        </mxCell>
        <mxCell id="y8jEOTL4MjrVP4F1A8_s-116" style="edgeStyle=orthogonalEdgeStyle;rounded=0;orthogonalLoop=1;jettySize=auto;html=1;entryX=0;entryY=0.5;entryDx=0;entryDy=0;endArrow=none;startFill=0;" edge="1" parent="1" source="y8jEOTL4MjrVP4F1A8_s-117" target="y8jEOTL4MjrVP4F1A8_s-123">
          <mxGeometry relative="1" as="geometry" />
        </mxCell>
        <mxCell id="y8jEOTL4MjrVP4F1A8_s-207" style="edgeStyle=orthogonalEdgeStyle;rounded=0;orthogonalLoop=1;jettySize=auto;html=1;entryX=0;entryY=0.5;entryDx=0;entryDy=0;endArrow=ERmany;endFill=0;" edge="1" parent="1" source="y8jEOTL4MjrVP4F1A8_s-117" target="y8jEOTL4MjrVP4F1A8_s-205">
          <mxGeometry relative="1" as="geometry" />
        </mxCell>
        <mxCell id="y8jEOTL4MjrVP4F1A8_s-209" style="edgeStyle=orthogonalEdgeStyle;rounded=0;orthogonalLoop=1;jettySize=auto;html=1;entryX=0;entryY=0.5;entryDx=0;entryDy=0;endArrow=none;startFill=0;" edge="1" parent="1" source="y8jEOTL4MjrVP4F1A8_s-117" target="y8jEOTL4MjrVP4F1A8_s-124">
          <mxGeometry relative="1" as="geometry" />
        </mxCell>
        <mxCell id="y8jEOTL4MjrVP4F1A8_s-210" style="edgeStyle=orthogonalEdgeStyle;rounded=0;orthogonalLoop=1;jettySize=auto;html=1;entryX=1;entryY=0.5;entryDx=0;entryDy=0;endArrow=none;startFill=0;" edge="1" parent="1" source="y8jEOTL4MjrVP4F1A8_s-117" target="y8jEOTL4MjrVP4F1A8_s-120">
          <mxGeometry relative="1" as="geometry" />
        </mxCell>
        <mxCell id="y8jEOTL4MjrVP4F1A8_s-212" style="edgeStyle=orthogonalEdgeStyle;rounded=0;orthogonalLoop=1;jettySize=auto;html=1;entryX=0;entryY=0.5;entryDx=0;entryDy=0;endArrow=none;startFill=0;" edge="1" parent="1" source="y8jEOTL4MjrVP4F1A8_s-117" target="y8jEOTL4MjrVP4F1A8_s-130">
          <mxGeometry relative="1" as="geometry" />
        </mxCell>
        <mxCell id="y8jEOTL4MjrVP4F1A8_s-213" style="edgeStyle=orthogonalEdgeStyle;rounded=0;orthogonalLoop=1;jettySize=auto;html=1;entryX=1;entryY=0.5;entryDx=0;entryDy=0;endArrow=none;startFill=0;" edge="1" parent="1" source="y8jEOTL4MjrVP4F1A8_s-117" target="y8jEOTL4MjrVP4F1A8_s-148">
          <mxGeometry relative="1" as="geometry" />
        </mxCell>
        <mxCell id="y8jEOTL4MjrVP4F1A8_s-214" style="edgeStyle=orthogonalEdgeStyle;rounded=0;orthogonalLoop=1;jettySize=auto;html=1;entryX=1;entryY=0.5;entryDx=0;entryDy=0;endArrow=none;startFill=0;" edge="1" parent="1" source="y8jEOTL4MjrVP4F1A8_s-117" target="y8jEOTL4MjrVP4F1A8_s-128">
          <mxGeometry relative="1" as="geometry" />
        </mxCell>
        <mxCell id="y8jEOTL4MjrVP4F1A8_s-215" style="edgeStyle=orthogonalEdgeStyle;rounded=0;orthogonalLoop=1;jettySize=auto;html=1;entryX=0;entryY=0.5;entryDx=0;entryDy=0;endArrow=none;startFill=0;" edge="1" parent="1" source="y8jEOTL4MjrVP4F1A8_s-117" target="y8jEOTL4MjrVP4F1A8_s-119">
          <mxGeometry relative="1" as="geometry" />
        </mxCell>
        <mxCell id="y8jEOTL4MjrVP4F1A8_s-117" value="&lt;b&gt;Фильмы&lt;/b&gt;" style="rounded=0;whiteSpace=wrap;html=1;" vertex="1" parent="1">
          <mxGeometry x="-39.5" y="1121" width="120" height="60" as="geometry" />
        </mxCell>
        <mxCell id="y8jEOTL4MjrVP4F1A8_s-119" value="Описание" style="ellipse;whiteSpace=wrap;html=1;" vertex="1" parent="1">
          <mxGeometry x="50.75" y="958.5" width="120" height="40" as="geometry" />
        </mxCell>
        <mxCell id="y8jEOTL4MjrVP4F1A8_s-120" value="Рейтинг" style="ellipse;whiteSpace=wrap;html=1;" vertex="1" parent="1">
          <mxGeometry x="-129.75" y="918.5" width="120" height="40" as="geometry" />
        </mxCell>
        <mxCell id="y8jEOTL4MjrVP4F1A8_s-121" style="edgeStyle=orthogonalEdgeStyle;rounded=0;orthogonalLoop=1;jettySize=auto;html=1;exitX=1;exitY=0.5;exitDx=0;exitDy=0;endArrow=none;endFill=0;entryX=0.5;entryY=0;entryDx=0;entryDy=0;" edge="1" parent="1" source="y8jEOTL4MjrVP4F1A8_s-122" target="y8jEOTL4MjrVP4F1A8_s-117">
          <mxGeometry relative="1" as="geometry">
            <mxPoint x="19" y="745.2758620689656" as="targetPoint" />
          </mxGeometry>
        </mxCell>
        <mxCell id="y8jEOTL4MjrVP4F1A8_s-122" value="Название" style="ellipse;whiteSpace=wrap;html=1;" vertex="1" parent="1">
          <mxGeometry x="-129.75" y="848.5" width="120" height="40" as="geometry" />
        </mxCell>
        <mxCell id="y8jEOTL4MjrVP4F1A8_s-123" value="id" style="ellipse;whiteSpace=wrap;html=1;" vertex="1" parent="1">
          <mxGeometry x="50.75" y="818.5" width="120" height="40" as="geometry" />
        </mxCell>
        <mxCell id="y8jEOTL4MjrVP4F1A8_s-124" value="Продолжительность" style="ellipse;whiteSpace=wrap;html=1;" vertex="1" parent="1">
          <mxGeometry x="50.75" y="888.5" width="120" height="40" as="geometry" />
        </mxCell>
        <mxCell id="y8jEOTL4MjrVP4F1A8_s-128" value="Дата выхода" style="ellipse;whiteSpace=wrap;html=1;" vertex="1" parent="1">
          <mxGeometry x="-129.75" y="988.5" width="120" height="40" as="geometry" />
        </mxCell>
        <mxCell id="y8jEOTL4MjrVP4F1A8_s-130" value="Возрастное ограничение" style="ellipse;whiteSpace=wrap;html=1;" vertex="1" parent="1">
          <mxGeometry x="50.75" y="1028.5" width="120" height="40" as="geometry" />
        </mxCell>
        <mxCell id="y8jEOTL4MjrVP4F1A8_s-134" value="id кинозала" style="ellipse;whiteSpace=wrap;html=1;" vertex="1" parent="1">
          <mxGeometry x="434.5" y="988.5" width="120" height="40" as="geometry" />
        </mxCell>
        <mxCell id="y8jEOTL4MjrVP4F1A8_s-135" value="id фильма" style="ellipse;whiteSpace=wrap;html=1;" vertex="1" parent="1">
          <mxGeometry x="254.5" y="953.5" width="120" height="40" as="geometry" />
        </mxCell>
        <mxCell id="y8jEOTL4MjrVP4F1A8_s-136" style="edgeStyle=orthogonalEdgeStyle;rounded=0;orthogonalLoop=1;jettySize=auto;html=1;entryX=0;entryY=0.5;entryDx=0;entryDy=0;endArrow=none;startFill=0;" edge="1" parent="1" source="y8jEOTL4MjrVP4F1A8_s-137" target="y8jEOTL4MjrVP4F1A8_s-140">
          <mxGeometry relative="1" as="geometry" />
        </mxCell>
        <mxCell id="y8jEOTL4MjrVP4F1A8_s-137" value="&lt;b&gt;Жанры&lt;/b&gt;" style="rounded=0;whiteSpace=wrap;html=1;" vertex="1" parent="1">
          <mxGeometry x="-450" y="1121" width="120" height="60" as="geometry" />
        </mxCell>
        <mxCell id="y8jEOTL4MjrVP4F1A8_s-138" style="edgeStyle=orthogonalEdgeStyle;rounded=0;orthogonalLoop=1;jettySize=auto;html=1;exitX=0;exitY=0.5;exitDx=0;exitDy=0;endArrow=none;endFill=0;" edge="1" parent="1" source="y8jEOTL4MjrVP4F1A8_s-139">
          <mxGeometry relative="1" as="geometry">
            <mxPoint x="-390" y="1090.2758620689656" as="targetPoint" />
          </mxGeometry>
        </mxCell>
        <mxCell id="y8jEOTL4MjrVP4F1A8_s-139" value="Название" style="ellipse;whiteSpace=wrap;html=1;" vertex="1" parent="1">
          <mxGeometry x="-370" y="1070" width="120" height="40" as="geometry" />
        </mxCell>
        <mxCell id="y8jEOTL4MjrVP4F1A8_s-140" value="id" style="ellipse;whiteSpace=wrap;html=1;" vertex="1" parent="1">
          <mxGeometry x="-369" y="1015" width="120" height="40" as="geometry" />
        </mxCell>
        <mxCell id="y8jEOTL4MjrVP4F1A8_s-141" style="edgeStyle=orthogonalEdgeStyle;rounded=0;orthogonalLoop=1;jettySize=auto;html=1;entryX=0;entryY=0.5;entryDx=0;entryDy=0;endArrow=ERmany;endFill=0;" edge="1" parent="1" source="y8jEOTL4MjrVP4F1A8_s-144" target="y8jEOTL4MjrVP4F1A8_s-117">
          <mxGeometry relative="1" as="geometry">
            <mxPoint x="-39" y="1155" as="targetPoint" />
          </mxGeometry>
        </mxCell>
        <mxCell id="y8jEOTL4MjrVP4F1A8_s-142" style="edgeStyle=orthogonalEdgeStyle;rounded=0;orthogonalLoop=1;jettySize=auto;html=1;exitX=0;exitY=0.5;exitDx=0;exitDy=0;entryX=1;entryY=0.5;entryDx=0;entryDy=0;endArrow=ERmany;endFill=0;" edge="1" parent="1" target="y8jEOTL4MjrVP4F1A8_s-137" source="y8jEOTL4MjrVP4F1A8_s-144">
          <mxGeometry relative="1" as="geometry">
            <mxPoint x="-229.5" y="1155" as="sourcePoint" />
          </mxGeometry>
        </mxCell>
        <mxCell id="y8jEOTL4MjrVP4F1A8_s-143" style="edgeStyle=orthogonalEdgeStyle;rounded=0;orthogonalLoop=1;jettySize=auto;html=1;entryX=0;entryY=0.5;entryDx=0;entryDy=0;endArrow=none;startFill=0;" edge="1" parent="1" source="y8jEOTL4MjrVP4F1A8_s-144" target="y8jEOTL4MjrVP4F1A8_s-147">
          <mxGeometry relative="1" as="geometry" />
        </mxCell>
        <mxCell id="y8jEOTL4MjrVP4F1A8_s-144" value="Относится" style="rhombus;whiteSpace=wrap;html=1;" vertex="1" parent="1">
          <mxGeometry x="-240" y="1123.5" width="90" height="55" as="geometry" />
        </mxCell>
        <mxCell id="y8jEOTL4MjrVP4F1A8_s-145" style="edgeStyle=orthogonalEdgeStyle;rounded=0;orthogonalLoop=1;jettySize=auto;html=1;exitX=0;exitY=0.5;exitDx=0;exitDy=0;endArrow=none;endFill=0;" edge="1" parent="1">
          <mxGeometry relative="1" as="geometry">
            <mxPoint x="-195" y="1214.7758620689656" as="targetPoint" />
            <mxPoint x="-175" y="1214.5" as="sourcePoint" />
          </mxGeometry>
        </mxCell>
        <mxCell id="y8jEOTL4MjrVP4F1A8_s-146" value="id жанра" style="ellipse;whiteSpace=wrap;html=1;" vertex="1" parent="1">
          <mxGeometry x="-175" y="1195" width="120" height="40" as="geometry" />
        </mxCell>
        <mxCell id="y8jEOTL4MjrVP4F1A8_s-147" value="id фильма" style="ellipse;whiteSpace=wrap;html=1;" vertex="1" parent="1">
          <mxGeometry x="-175" y="1245" width="120" height="40" as="geometry" />
        </mxCell>
        <mxCell id="y8jEOTL4MjrVP4F1A8_s-148" value="Общие кассовые сборы" style="ellipse;whiteSpace=wrap;html=1;" vertex="1" parent="1">
          <mxGeometry x="-129.75" y="1058.5" width="120" height="40" as="geometry" />
        </mxCell>
        <mxCell id="y8jEOTL4MjrVP4F1A8_s-150" value="Время начала&lt;br&gt;сеанса" style="ellipse;whiteSpace=wrap;html=1;" vertex="1" parent="1">
          <mxGeometry x="254.5" y="1028.5" width="120" height="40" as="geometry" />
        </mxCell>
        <mxCell id="y8jEOTL4MjrVP4F1A8_s-151" value="id" style="ellipse;whiteSpace=wrap;html=1;" vertex="1" parent="1">
          <mxGeometry x="434.5" y="918.5" width="120" height="40" as="geometry" />
        </mxCell>
        <mxCell id="y8jEOTL4MjrVP4F1A8_s-154" value="Язык показа" style="ellipse;whiteSpace=wrap;html=1;" vertex="1" parent="1">
          <mxGeometry x="434.5" y="1058.5" width="120" height="40" as="geometry" />
        </mxCell>
        <mxCell id="y8jEOTL4MjrVP4F1A8_s-158" style="edgeStyle=orthogonalEdgeStyle;rounded=0;orthogonalLoop=1;jettySize=auto;html=1;entryX=0;entryY=0.5;entryDx=0;entryDy=0;endArrow=none;startFill=0;" edge="1" parent="1" source="y8jEOTL4MjrVP4F1A8_s-160" target="y8jEOTL4MjrVP4F1A8_s-166">
          <mxGeometry relative="1" as="geometry" />
        </mxCell>
        <mxCell id="y8jEOTL4MjrVP4F1A8_s-160" value="&lt;b&gt;Билеты&lt;/b&gt;" style="rounded=0;whiteSpace=wrap;html=1;" vertex="1" parent="1">
          <mxGeometry x="345.5" y="1250" width="120" height="60" as="geometry" />
        </mxCell>
        <mxCell id="y8jEOTL4MjrVP4F1A8_s-161" style="edgeStyle=orthogonalEdgeStyle;rounded=0;orthogonalLoop=1;jettySize=auto;html=1;exitX=0;exitY=0.5;exitDx=0;exitDy=0;endArrow=none;endFill=0;entryX=0.5;entryY=1;entryDx=0;entryDy=0;" edge="1" parent="1" source="y8jEOTL4MjrVP4F1A8_s-162" target="y8jEOTL4MjrVP4F1A8_s-160">
          <mxGeometry relative="1" as="geometry">
            <mxPoint x="405.5" y="1570.2758620689656" as="targetPoint" />
          </mxGeometry>
        </mxCell>
        <mxCell id="y8jEOTL4MjrVP4F1A8_s-162" value="Статус бронирования" style="ellipse;whiteSpace=wrap;html=1;" vertex="1" parent="1">
          <mxGeometry x="425.5" y="1550" width="120" height="40" as="geometry" />
        </mxCell>
        <mxCell id="y8jEOTL4MjrVP4F1A8_s-163" value="Тип" style="ellipse;whiteSpace=wrap;html=1;" vertex="1" parent="1">
          <mxGeometry x="424.5" y="1490" width="120" height="40" as="geometry" />
        </mxCell>
        <mxCell id="y8jEOTL4MjrVP4F1A8_s-164" style="edgeStyle=orthogonalEdgeStyle;rounded=0;orthogonalLoop=1;jettySize=auto;html=1;exitX=0;exitY=0.5;exitDx=0;exitDy=0;endArrow=none;endFill=0;" edge="1" parent="1" source="y8jEOTL4MjrVP4F1A8_s-165">
          <mxGeometry relative="1" as="geometry">
            <mxPoint x="404.5" y="1410.2758620689656" as="targetPoint" />
          </mxGeometry>
        </mxCell>
        <mxCell id="y8jEOTL4MjrVP4F1A8_s-165" value="Номер места" style="ellipse;whiteSpace=wrap;html=1;" vertex="1" parent="1">
          <mxGeometry x="424.5" y="1390" width="120" height="40" as="geometry" />
        </mxCell>
        <mxCell id="y8jEOTL4MjrVP4F1A8_s-166" value="id" style="ellipse;whiteSpace=wrap;html=1;" vertex="1" parent="1">
          <mxGeometry x="425.5" y="1332.5" width="120" height="40" as="geometry" />
        </mxCell>
        <mxCell id="y8jEOTL4MjrVP4F1A8_s-167" value="Цена" style="ellipse;whiteSpace=wrap;html=1;" vertex="1" parent="1">
          <mxGeometry x="425.5" y="1440" width="120" height="40" as="geometry" />
        </mxCell>
        <mxCell id="y8jEOTL4MjrVP4F1A8_s-168" style="edgeStyle=orthogonalEdgeStyle;rounded=0;orthogonalLoop=1;jettySize=auto;html=1;exitX=0;exitY=0.5;exitDx=0;exitDy=0;endArrow=none;endFill=0;" edge="1" parent="1">
          <mxGeometry relative="1" as="geometry">
            <mxPoint x="405.5" y="1459.7758620689656" as="targetPoint" />
            <mxPoint x="425.5" y="1459.5" as="sourcePoint" />
          </mxGeometry>
        </mxCell>
        <mxCell id="y8jEOTL4MjrVP4F1A8_s-169" style="edgeStyle=orthogonalEdgeStyle;rounded=0;orthogonalLoop=1;jettySize=auto;html=1;exitX=0;exitY=0.5;exitDx=0;exitDy=0;endArrow=none;endFill=0;" edge="1" parent="1">
          <mxGeometry relative="1" as="geometry">
            <mxPoint x="405.5" y="1509.7758620689656" as="targetPoint" />
            <mxPoint x="425.5" y="1509.5" as="sourcePoint" />
          </mxGeometry>
        </mxCell>
        <mxCell id="y8jEOTL4MjrVP4F1A8_s-170" style="edgeStyle=orthogonalEdgeStyle;rounded=0;orthogonalLoop=1;jettySize=auto;html=1;entryX=0;entryY=0.5;entryDx=0;entryDy=0;endArrow=none;startFill=0;" edge="1" parent="1" source="y8jEOTL4MjrVP4F1A8_s-172" target="y8jEOTL4MjrVP4F1A8_s-196">
          <mxGeometry relative="1" as="geometry" />
        </mxCell>
        <mxCell id="y8jEOTL4MjrVP4F1A8_s-172" value="&lt;b&gt;Пользователи&lt;/b&gt;" style="rounded=0;whiteSpace=wrap;html=1;" vertex="1" parent="1">
          <mxGeometry x="170" y="1690" width="120" height="60" as="geometry" />
        </mxCell>
        <mxCell id="y8jEOTL4MjrVP4F1A8_s-173" style="edgeStyle=orthogonalEdgeStyle;rounded=0;orthogonalLoop=1;jettySize=auto;html=1;exitX=0;exitY=0.5;exitDx=0;exitDy=0;endArrow=none;endFill=0;" edge="1" parent="1" source="y8jEOTL4MjrVP4F1A8_s-174">
          <mxGeometry relative="1" as="geometry">
            <mxPoint x="230.5" y="1750" as="targetPoint" />
          </mxGeometry>
        </mxCell>
        <mxCell id="y8jEOTL4MjrVP4F1A8_s-174" value="Год рождения" style="ellipse;whiteSpace=wrap;html=1;" vertex="1" parent="1">
          <mxGeometry x="250" y="1980" width="120" height="40" as="geometry" />
        </mxCell>
        <mxCell id="y8jEOTL4MjrVP4F1A8_s-175" value="Пароль" style="ellipse;whiteSpace=wrap;html=1;" vertex="1" parent="1">
          <mxGeometry x="249" y="1920" width="120" height="40" as="geometry" />
        </mxCell>
        <mxCell id="y8jEOTL4MjrVP4F1A8_s-176" style="edgeStyle=orthogonalEdgeStyle;rounded=0;orthogonalLoop=1;jettySize=auto;html=1;exitX=0;exitY=0.5;exitDx=0;exitDy=0;endArrow=none;endFill=0;" edge="1" parent="1" source="y8jEOTL4MjrVP4F1A8_s-177">
          <mxGeometry relative="1" as="geometry">
            <mxPoint x="229" y="1840.2758620689656" as="targetPoint" />
          </mxGeometry>
        </mxCell>
        <mxCell id="y8jEOTL4MjrVP4F1A8_s-177" value="Имя" style="ellipse;whiteSpace=wrap;html=1;" vertex="1" parent="1">
          <mxGeometry x="249" y="1820" width="120" height="40" as="geometry" />
        </mxCell>
        <mxCell id="y8jEOTL4MjrVP4F1A8_s-178" value="id" style="ellipse;whiteSpace=wrap;html=1;" vertex="1" parent="1">
          <mxGeometry x="250" y="1762.5" width="120" height="40" as="geometry" />
        </mxCell>
        <mxCell id="y8jEOTL4MjrVP4F1A8_s-179" value="Почта" style="ellipse;whiteSpace=wrap;html=1;" vertex="1" parent="1">
          <mxGeometry x="250" y="1870" width="120" height="40" as="geometry" />
        </mxCell>
        <mxCell id="y8jEOTL4MjrVP4F1A8_s-180" style="edgeStyle=orthogonalEdgeStyle;rounded=0;orthogonalLoop=1;jettySize=auto;html=1;exitX=0;exitY=0.5;exitDx=0;exitDy=0;endArrow=none;endFill=0;" edge="1" parent="1">
          <mxGeometry relative="1" as="geometry">
            <mxPoint x="230" y="1889.7758620689656" as="targetPoint" />
            <mxPoint x="250" y="1889.5" as="sourcePoint" />
          </mxGeometry>
        </mxCell>
        <mxCell id="y8jEOTL4MjrVP4F1A8_s-181" style="edgeStyle=orthogonalEdgeStyle;rounded=0;orthogonalLoop=1;jettySize=auto;html=1;exitX=0;exitY=0.5;exitDx=0;exitDy=0;endArrow=none;endFill=0;" edge="1" parent="1">
          <mxGeometry relative="1" as="geometry">
            <mxPoint x="230" y="1939.7758620689656" as="targetPoint" />
            <mxPoint x="250" y="1939.5" as="sourcePoint" />
          </mxGeometry>
        </mxCell>
        <mxCell id="y8jEOTL4MjrVP4F1A8_s-182" style="edgeStyle=orthogonalEdgeStyle;rounded=0;orthogonalLoop=1;jettySize=auto;html=1;exitX=0;exitY=0.5;exitDx=0;exitDy=0;endArrow=none;endFill=0;" edge="1" parent="1">
          <mxGeometry relative="1" as="geometry">
            <mxPoint x="231" y="1782.2758620689656" as="targetPoint" />
            <mxPoint x="251" y="1782" as="sourcePoint" />
          </mxGeometry>
        </mxCell>
        <mxCell id="y8jEOTL4MjrVP4F1A8_s-183" style="edgeStyle=orthogonalEdgeStyle;rounded=0;orthogonalLoop=1;jettySize=auto;html=1;exitX=0;exitY=0.5;exitDx=0;exitDy=0;endArrow=none;endFill=0;entryX=0.5;entryY=1;entryDx=0;entryDy=0;" edge="1" parent="1" source="y8jEOTL4MjrVP4F1A8_s-184">
          <mxGeometry relative="1" as="geometry">
            <mxPoint x="15" y="1740" as="targetPoint" />
          </mxGeometry>
        </mxCell>
        <mxCell id="y8jEOTL4MjrVP4F1A8_s-184" value="Комментарий" style="ellipse;whiteSpace=wrap;html=1;" vertex="1" parent="1">
          <mxGeometry x="35" y="1980" width="120" height="40" as="geometry" />
        </mxCell>
        <mxCell id="y8jEOTL4MjrVP4F1A8_s-185" value="Оценка" style="ellipse;whiteSpace=wrap;html=1;" vertex="1" parent="1">
          <mxGeometry x="34" y="1920" width="120" height="40" as="geometry" />
        </mxCell>
        <mxCell id="y8jEOTL4MjrVP4F1A8_s-186" style="edgeStyle=orthogonalEdgeStyle;rounded=0;orthogonalLoop=1;jettySize=auto;html=1;exitX=0;exitY=0.5;exitDx=0;exitDy=0;endArrow=none;endFill=0;" edge="1" parent="1" source="y8jEOTL4MjrVP4F1A8_s-187">
          <mxGeometry relative="1" as="geometry">
            <mxPoint x="14" y="1840.2758620689656" as="targetPoint" />
          </mxGeometry>
        </mxCell>
        <mxCell id="y8jEOTL4MjrVP4F1A8_s-187" value="Id пользователя" style="ellipse;whiteSpace=wrap;html=1;" vertex="1" parent="1">
          <mxGeometry x="34" y="1820" width="120" height="40" as="geometry" />
        </mxCell>
        <mxCell id="y8jEOTL4MjrVP4F1A8_s-188" value="id" style="ellipse;whiteSpace=wrap;html=1;" vertex="1" parent="1">
          <mxGeometry x="35" y="1762.5" width="120" height="40" as="geometry" />
        </mxCell>
        <mxCell id="y8jEOTL4MjrVP4F1A8_s-189" value="Id фильма" style="ellipse;whiteSpace=wrap;html=1;" vertex="1" parent="1">
          <mxGeometry x="35" y="1870" width="120" height="40" as="geometry" />
        </mxCell>
        <mxCell id="y8jEOTL4MjrVP4F1A8_s-190" style="edgeStyle=orthogonalEdgeStyle;rounded=0;orthogonalLoop=1;jettySize=auto;html=1;exitX=0;exitY=0.5;exitDx=0;exitDy=0;endArrow=none;endFill=0;" edge="1" parent="1">
          <mxGeometry relative="1" as="geometry">
            <mxPoint x="15" y="1889.7758620689656" as="targetPoint" />
            <mxPoint x="35" y="1889.5" as="sourcePoint" />
          </mxGeometry>
        </mxCell>
        <mxCell id="y8jEOTL4MjrVP4F1A8_s-191" style="edgeStyle=orthogonalEdgeStyle;rounded=0;orthogonalLoop=1;jettySize=auto;html=1;exitX=0;exitY=0.5;exitDx=0;exitDy=0;endArrow=none;endFill=0;" edge="1" parent="1">
          <mxGeometry relative="1" as="geometry">
            <mxPoint x="15" y="1939.7758620689656" as="targetPoint" />
            <mxPoint x="35" y="1939.5" as="sourcePoint" />
          </mxGeometry>
        </mxCell>
        <mxCell id="y8jEOTL4MjrVP4F1A8_s-192" style="edgeStyle=orthogonalEdgeStyle;rounded=0;orthogonalLoop=1;jettySize=auto;html=1;exitX=0;exitY=0.5;exitDx=0;exitDy=0;endArrow=none;endFill=0;" edge="1" parent="1">
          <mxGeometry relative="1" as="geometry">
            <mxPoint x="16" y="1782.2758620689656" as="targetPoint" />
            <mxPoint x="36" y="1782" as="sourcePoint" />
          </mxGeometry>
        </mxCell>
        <mxCell id="y8jEOTL4MjrVP4F1A8_s-193" style="edgeStyle=orthogonalEdgeStyle;rounded=0;orthogonalLoop=1;jettySize=auto;html=1;exitX=1;exitY=0.5;exitDx=0;exitDy=0;entryX=0;entryY=0.5;entryDx=0;entryDy=0;endArrow=ERmany;startFill=0;endFill=0;" edge="1" parent="1" source="y8jEOTL4MjrVP4F1A8_s-195" target="y8jEOTL4MjrVP4F1A8_s-172">
          <mxGeometry relative="1" as="geometry" />
        </mxCell>
        <mxCell id="y8jEOTL4MjrVP4F1A8_s-194" style="edgeStyle=orthogonalEdgeStyle;rounded=0;orthogonalLoop=1;jettySize=auto;html=1;entryX=0.5;entryY=1;entryDx=0;entryDy=0;endArrow=ERmany;startFill=0;endFill=0;" edge="1" parent="1" source="y8jEOTL4MjrVP4F1A8_s-195" target="y8jEOTL4MjrVP4F1A8_s-117">
          <mxGeometry relative="1" as="geometry" />
        </mxCell>
        <mxCell id="y8jEOTL4MjrVP4F1A8_s-195" value="Отзывы" style="rhombus;whiteSpace=wrap;html=1;" vertex="1" parent="1">
          <mxGeometry x="-30" y="1693" width="90" height="55" as="geometry" />
        </mxCell>
        <mxCell id="y8jEOTL4MjrVP4F1A8_s-196" value="Статус (блокирован?)" style="ellipse;whiteSpace=wrap;html=1;" vertex="1" parent="1">
          <mxGeometry x="249" y="2040" width="120" height="40" as="geometry" />
        </mxCell>
        <mxCell id="y8jEOTL4MjrVP4F1A8_s-251" style="edgeStyle=orthogonalEdgeStyle;rounded=0;orthogonalLoop=1;jettySize=auto;html=1;entryX=1;entryY=0.5;entryDx=0;entryDy=0;endArrow=ERmany;endFill=0;" edge="1" parent="1" source="y8jEOTL4MjrVP4F1A8_s-197" target="y8jEOTL4MjrVP4F1A8_s-172">
          <mxGeometry relative="1" as="geometry" />
        </mxCell>
        <mxCell id="y8jEOTL4MjrVP4F1A8_s-197" value="" style="rounded=0;whiteSpace=wrap;html=1;" vertex="1" parent="1">
          <mxGeometry x="434.5" y="1690" width="120" height="60" as="geometry" />
        </mxCell>
        <mxCell id="y8jEOTL4MjrVP4F1A8_s-198" style="edgeStyle=orthogonalEdgeStyle;rounded=0;orthogonalLoop=1;jettySize=auto;html=1;entryX=0;entryY=0.5;entryDx=0;entryDy=0;endArrow=none;startFill=0;" edge="1" parent="1" source="y8jEOTL4MjrVP4F1A8_s-199" target="y8jEOTL4MjrVP4F1A8_s-200">
          <mxGeometry relative="1" as="geometry" />
        </mxCell>
        <mxCell id="y8jEOTL4MjrVP4F1A8_s-199" value="&lt;span style=&quot;font-weight: 700&quot;&gt;Роль&lt;/span&gt;" style="rounded=0;whiteSpace=wrap;html=1;" vertex="1" parent="1">
          <mxGeometry x="449.5" y="1695" width="90" height="50" as="geometry" />
        </mxCell>
        <mxCell id="y8jEOTL4MjrVP4F1A8_s-200" value="id" style="ellipse;whiteSpace=wrap;html=1;" vertex="1" parent="1">
          <mxGeometry x="514.5" y="1770" width="120" height="40" as="geometry" />
        </mxCell>
        <mxCell id="y8jEOTL4MjrVP4F1A8_s-201" style="edgeStyle=orthogonalEdgeStyle;rounded=0;orthogonalLoop=1;jettySize=auto;html=1;exitX=0;exitY=0.5;exitDx=0;exitDy=0;entryX=0.5;entryY=1;entryDx=0;entryDy=0;endArrow=none;startFill=0;" edge="1" parent="1" source="y8jEOTL4MjrVP4F1A8_s-202" target="y8jEOTL4MjrVP4F1A8_s-172">
          <mxGeometry relative="1" as="geometry" />
        </mxCell>
        <mxCell id="y8jEOTL4MjrVP4F1A8_s-202" value="Id роли" style="ellipse;whiteSpace=wrap;html=1;" vertex="1" parent="1">
          <mxGeometry x="249" y="2090" width="120" height="40" as="geometry" />
        </mxCell>
        <mxCell id="y8jEOTL4MjrVP4F1A8_s-203" style="edgeStyle=orthogonalEdgeStyle;rounded=0;orthogonalLoop=1;jettySize=auto;html=1;entryX=0.5;entryY=1;entryDx=0;entryDy=0;endArrow=none;startFill=0;" edge="1" parent="1" source="y8jEOTL4MjrVP4F1A8_s-204" target="y8jEOTL4MjrVP4F1A8_s-199">
          <mxGeometry relative="1" as="geometry">
            <Array as="points">
              <mxPoint x="495" y="1850" />
            </Array>
          </mxGeometry>
        </mxCell>
        <mxCell id="y8jEOTL4MjrVP4F1A8_s-204" value="Название" style="ellipse;whiteSpace=wrap;html=1;" vertex="1" parent="1">
          <mxGeometry x="514.5" y="1830" width="120" height="40" as="geometry" />
        </mxCell>
        <mxCell id="y8jEOTL4MjrVP4F1A8_s-206" style="edgeStyle=orthogonalEdgeStyle;rounded=0;orthogonalLoop=1;jettySize=auto;html=1;entryX=0;entryY=0.5;entryDx=0;entryDy=0;endArrow=none;startFill=0;startArrow=ERmany;" edge="1" parent="1" source="y8jEOTL4MjrVP4F1A8_s-205" target="y8jEOTL4MjrVP4F1A8_s-106">
          <mxGeometry relative="1" as="geometry" />
        </mxCell>
        <mxCell id="y8jEOTL4MjrVP4F1A8_s-216" style="edgeStyle=orthogonalEdgeStyle;rounded=0;orthogonalLoop=1;jettySize=auto;html=1;entryX=0;entryY=0.5;entryDx=0;entryDy=0;endArrow=none;startFill=0;" edge="1" parent="1" source="y8jEOTL4MjrVP4F1A8_s-205" target="y8jEOTL4MjrVP4F1A8_s-151">
          <mxGeometry relative="1" as="geometry" />
        </mxCell>
        <mxCell id="y8jEOTL4MjrVP4F1A8_s-217" style="edgeStyle=orthogonalEdgeStyle;rounded=0;orthogonalLoop=1;jettySize=auto;html=1;entryX=0;entryY=0.5;entryDx=0;entryDy=0;endArrow=none;startFill=0;" edge="1" parent="1" source="y8jEOTL4MjrVP4F1A8_s-205" target="y8jEOTL4MjrVP4F1A8_s-134">
          <mxGeometry relative="1" as="geometry" />
        </mxCell>
        <mxCell id="y8jEOTL4MjrVP4F1A8_s-218" style="edgeStyle=orthogonalEdgeStyle;rounded=0;orthogonalLoop=1;jettySize=auto;html=1;entryX=0;entryY=0.5;entryDx=0;entryDy=0;endArrow=none;startFill=0;" edge="1" parent="1" source="y8jEOTL4MjrVP4F1A8_s-205" target="y8jEOTL4MjrVP4F1A8_s-154">
          <mxGeometry relative="1" as="geometry" />
        </mxCell>
        <mxCell id="y8jEOTL4MjrVP4F1A8_s-219" style="edgeStyle=orthogonalEdgeStyle;rounded=0;orthogonalLoop=1;jettySize=auto;html=1;entryX=1;entryY=0.5;entryDx=0;entryDy=0;endArrow=none;startFill=0;" edge="1" parent="1" source="y8jEOTL4MjrVP4F1A8_s-205" target="y8jEOTL4MjrVP4F1A8_s-150">
          <mxGeometry relative="1" as="geometry" />
        </mxCell>
        <mxCell id="y8jEOTL4MjrVP4F1A8_s-220" style="edgeStyle=orthogonalEdgeStyle;rounded=0;orthogonalLoop=1;jettySize=auto;html=1;entryX=1;entryY=0.5;entryDx=0;entryDy=0;endArrow=none;startFill=0;" edge="1" parent="1" source="y8jEOTL4MjrVP4F1A8_s-205" target="y8jEOTL4MjrVP4F1A8_s-135">
          <mxGeometry relative="1" as="geometry" />
        </mxCell>
        <mxCell id="y8jEOTL4MjrVP4F1A8_s-205" value="&lt;b&gt;Сеансы&lt;/b&gt;" style="rounded=0;whiteSpace=wrap;html=1;" vertex="1" parent="1">
          <mxGeometry x="344.5" y="1121" width="120" height="60" as="geometry" />
        </mxCell>
        <mxCell id="y8jEOTL4MjrVP4F1A8_s-227" style="edgeStyle=orthogonalEdgeStyle;rounded=0;orthogonalLoop=1;jettySize=auto;html=1;entryX=0;entryY=0.5;entryDx=0;entryDy=0;endArrow=none;startFill=0;" edge="1" parent="1" source="y8jEOTL4MjrVP4F1A8_s-232" target="y8jEOTL4MjrVP4F1A8_s-236">
          <mxGeometry relative="1" as="geometry" />
        </mxCell>
        <mxCell id="y8jEOTL4MjrVP4F1A8_s-228" style="edgeStyle=orthogonalEdgeStyle;rounded=0;orthogonalLoop=1;jettySize=auto;html=1;entryX=0;entryY=0.5;entryDx=0;entryDy=0;endArrow=none;startFill=0;" edge="1" parent="1" source="y8jEOTL4MjrVP4F1A8_s-232" target="y8jEOTL4MjrVP4F1A8_s-235">
          <mxGeometry relative="1" as="geometry" />
        </mxCell>
        <mxCell id="y8jEOTL4MjrVP4F1A8_s-230" style="edgeStyle=orthogonalEdgeStyle;rounded=0;orthogonalLoop=1;jettySize=auto;html=1;entryX=1;entryY=0.5;entryDx=0;entryDy=0;endArrow=none;startFill=0;" edge="1" parent="1" source="y8jEOTL4MjrVP4F1A8_s-232" target="y8jEOTL4MjrVP4F1A8_s-237">
          <mxGeometry relative="1" as="geometry" />
        </mxCell>
        <mxCell id="y8jEOTL4MjrVP4F1A8_s-238" style="edgeStyle=orthogonalEdgeStyle;rounded=0;orthogonalLoop=1;jettySize=auto;html=1;entryX=1;entryY=0.5;entryDx=0;entryDy=0;endArrow=ERmany;endFill=0;" edge="1" parent="1" source="y8jEOTL4MjrVP4F1A8_s-232" target="y8jEOTL4MjrVP4F1A8_s-106">
          <mxGeometry relative="1" as="geometry" />
        </mxCell>
        <mxCell id="y8jEOTL4MjrVP4F1A8_s-232" value="&lt;b&gt;Тип оборудования&lt;/b&gt;" style="rounded=0;whiteSpace=wrap;html=1;" vertex="1" parent="1">
          <mxGeometry x="1128.5" y="1121" width="120" height="60" as="geometry" />
        </mxCell>
        <mxCell id="y8jEOTL4MjrVP4F1A8_s-235" value="Описание" style="ellipse;whiteSpace=wrap;html=1;" vertex="1" parent="1">
          <mxGeometry x="1218.87" y="1060" width="120" height="40" as="geometry" />
        </mxCell>
        <mxCell id="y8jEOTL4MjrVP4F1A8_s-236" value="id" style="ellipse;whiteSpace=wrap;html=1;" vertex="1" parent="1">
          <mxGeometry x="1218.87" y="990" width="120" height="40" as="geometry" />
        </mxCell>
        <mxCell id="y8jEOTL4MjrVP4F1A8_s-237" value="Название" style="ellipse;whiteSpace=wrap;html=1;" vertex="1" parent="1">
          <mxGeometry x="1038.12" y="1030" width="120" height="40" as="geometry" />
        </mxCell>
        <mxCell id="y8jEOTL4MjrVP4F1A8_s-239" style="edgeStyle=orthogonalEdgeStyle;rounded=0;orthogonalLoop=1;jettySize=auto;html=1;entryX=0;entryY=0.5;entryDx=0;entryDy=0;endArrow=none;startFill=0;" edge="1" parent="1" source="y8jEOTL4MjrVP4F1A8_s-244" target="y8jEOTL4MjrVP4F1A8_s-248">
          <mxGeometry relative="1" as="geometry" />
        </mxCell>
        <mxCell id="y8jEOTL4MjrVP4F1A8_s-240" style="edgeStyle=orthogonalEdgeStyle;rounded=0;orthogonalLoop=1;jettySize=auto;html=1;entryX=0;entryY=0.5;entryDx=0;entryDy=0;endArrow=none;startFill=0;" edge="1" parent="1" source="y8jEOTL4MjrVP4F1A8_s-244" target="y8jEOTL4MjrVP4F1A8_s-247">
          <mxGeometry relative="1" as="geometry" />
        </mxCell>
        <mxCell id="y8jEOTL4MjrVP4F1A8_s-241" style="edgeStyle=orthogonalEdgeStyle;rounded=0;orthogonalLoop=1;jettySize=auto;html=1;entryX=0;entryY=0.5;entryDx=0;entryDy=0;endArrow=none;startFill=0;" edge="1" parent="1" source="y8jEOTL4MjrVP4F1A8_s-244" target="y8jEOTL4MjrVP4F1A8_s-245">
          <mxGeometry relative="1" as="geometry" />
        </mxCell>
        <mxCell id="y8jEOTL4MjrVP4F1A8_s-242" style="edgeStyle=orthogonalEdgeStyle;rounded=0;orthogonalLoop=1;jettySize=auto;html=1;entryX=1;entryY=0.5;entryDx=0;entryDy=0;endArrow=none;startFill=0;" edge="1" parent="1" source="y8jEOTL4MjrVP4F1A8_s-244" target="y8jEOTL4MjrVP4F1A8_s-249">
          <mxGeometry relative="1" as="geometry" />
        </mxCell>
        <mxCell id="y8jEOTL4MjrVP4F1A8_s-243" style="edgeStyle=orthogonalEdgeStyle;rounded=0;orthogonalLoop=1;jettySize=auto;html=1;entryX=1;entryY=0.5;entryDx=0;entryDy=0;endArrow=none;startFill=0;" edge="1" parent="1" source="y8jEOTL4MjrVP4F1A8_s-244" target="y8jEOTL4MjrVP4F1A8_s-246">
          <mxGeometry relative="1" as="geometry" />
        </mxCell>
        <mxCell id="y8jEOTL4MjrVP4F1A8_s-250" style="edgeStyle=orthogonalEdgeStyle;rounded=0;orthogonalLoop=1;jettySize=auto;html=1;endArrow=none;startFill=0;startArrow=ERmany;" edge="1" parent="1" source="y8jEOTL4MjrVP4F1A8_s-244" target="y8jEOTL4MjrVP4F1A8_s-106">
          <mxGeometry relative="1" as="geometry" />
        </mxCell>
        <mxCell id="y8jEOTL4MjrVP4F1A8_s-244" value="&lt;b&gt;Места&lt;/b&gt;" style="rounded=0;whiteSpace=wrap;html=1;" vertex="1" parent="1">
          <mxGeometry x="739" y="1275" width="120" height="60" as="geometry" />
        </mxCell>
        <mxCell id="y8jEOTL4MjrVP4F1A8_s-245" value="Описание" style="ellipse;whiteSpace=wrap;html=1;" vertex="1" parent="1">
          <mxGeometry x="832.75" y="1490" width="120" height="40" as="geometry" />
        </mxCell>
        <mxCell id="y8jEOTL4MjrVP4F1A8_s-246" value="id типа оборудования" style="ellipse;whiteSpace=wrap;html=1;" vertex="1" parent="1">
          <mxGeometry x="652" y="1460" width="120" height="40" as="geometry" />
        </mxCell>
        <mxCell id="y8jEOTL4MjrVP4F1A8_s-247" value="Название" style="ellipse;whiteSpace=wrap;html=1;" vertex="1" parent="1">
          <mxGeometry x="832.75" y="1420" width="120" height="40" as="geometry" />
        </mxCell>
        <mxCell id="y8jEOTL4MjrVP4F1A8_s-248" value="id" style="ellipse;whiteSpace=wrap;html=1;" vertex="1" parent="1">
          <mxGeometry x="832.75" y="1350" width="120" height="40" as="geometry" />
        </mxCell>
        <mxCell id="y8jEOTL4MjrVP4F1A8_s-249" value="Вместимость" style="ellipse;whiteSpace=wrap;html=1;" vertex="1" parent="1">
          <mxGeometry x="652" y="1390" width="120" height="40" as="geometry" />
        </mxCell>
      </root>
    </mxGraphModel>
  </diagram>
</mxfile>
